<svg width="26" height="14" viewBox="0 0 26 14" fill="none" xmlns="http://www.w3.org/2000/svg">
<path d="M25 7.67402C25.5523 7.67402 26 7.2263 26 6.67402C26 6.12173 25.5523 5.67402 25 5.67402V7.67402ZM1 5.67402C0.447716 5.67402 7.15256e-07 6.12173 7.15256e-07 6.67402C7.15256e-07 7.2263 0.447716 7.67402 1 7.67402V5.67402ZM6.40009 13.1481C6.84196 13.4794 7.46875 13.3898 7.80007 12.9479C8.13139 12.5061 8.04177 11.8793 7.59991 11.548L6.40009 13.1481ZM4.35555 10.3652L4.95545 9.56512L4.95545 9.56512L4.35555 10.3652ZM4.35555 2.98285L3.75564 2.18278V2.18278L4.35555 2.98285ZM7.59991 1.80007C8.04177 1.46875 8.13139 0.841962 7.80007 0.400095C7.46875 -0.0417724 6.84196 -0.131389 6.4001 0.199929L7.59991 1.80007ZM1.02983 7.02959L0.0437322 7.19573L0.0437324 7.19573L1.02983 7.02959ZM1.02983 6.31845L0.0437326 6.15231L0.0437323 6.15231L1.02983 6.31845ZM25 5.67402H1V7.67402H25V5.67402ZM7.59991 11.548L4.95545 9.56512L3.75564 11.1653L6.40009 13.1481L7.59991 11.548ZM4.95545 3.78292L7.59991 1.80007L6.4001 0.199929L3.75564 2.18278L4.95545 3.78292ZM4.95545 9.56512C3.88143 8.7598 3.14522 8.20588 2.64843 7.73789C2.15239 7.27061 2.04233 7.02012 2.01594 6.86345L0.0437324 7.19573C0.179697 8.00273 0.678043 8.6294 1.27704 9.19367C1.87529 9.75724 2.72076 10.3893 3.75564 11.1653L4.95545 9.56512ZM3.75564 2.18278C2.72076 2.95875 1.87529 3.5908 1.27704 4.15437C0.678043 4.71864 0.179697 5.34531 0.0437326 6.15231L2.01594 6.48459C2.04233 6.32792 2.15239 6.07743 2.64843 5.61015C3.14522 5.14216 3.88143 4.58824 4.95545 3.78292L3.75564 2.18278ZM2.01594 6.86345C1.99469 6.73733 1.99469 6.61071 2.01594 6.48459L0.0437323 6.15231C-0.0145774 6.4984 -0.0145774 6.84964 0.0437322 7.19573L2.01594 6.86345Z" fill="#fff"/>
</svg>
