<svg width="70" height="70" viewBox="0 0 70 70" fill="none" xmlns="http://www.w3.org/2000/svg">
<path d="M30.2969 1.91364C30.0781 2.96637 29.832 3.90973 29.75 4.0191C29.668 4.11481 29.2578 4.30621 28.8477 4.42926C28.4375 4.56598 27.5352 4.93512 26.8379 5.26324L25.5801 5.85114L23.8301 4.7027L22.0801 3.56793L19.0859 6.5484L16.0918 9.54254L16.6523 10.8687C16.9668 11.5933 17.2266 12.2359 17.2266 12.2906C17.2266 12.3589 16.7754 12.441 16.2285 12.482C14.0273 12.6734 12.0449 13.7535 10.7051 15.5172C9.32422 17.3218 8.96875 18.73 9.06445 21.9429C9.10547 23.3648 9.20117 24.3492 9.33789 24.7593C9.77539 26.0855 10.4316 27.1382 11.4297 28.15C11.9902 28.6968 12.4414 29.2574 12.4414 29.3804C12.4414 29.5582 12.0996 29.6949 10.8828 29.9957L9.31055 30.3785L6.48047 28.7242L3.66406 27.0699H1.83203H0L0.0273438 38.7867L0.0683594 50.4898L5.53711 52.3218L11.0059 54.1402L12.168 54.1129C13.2754 54.0718 13.3164 54.0582 13.3984 53.73C13.4395 53.5386 13.5352 53.3882 13.6172 53.3882C13.6855 53.3882 14.4512 53.8121 15.3262 54.3179C16.8848 55.2613 16.8984 55.2613 17.0488 55.9312C17.377 57.2847 18.5664 58.4468 19.8105 58.6109C20.3027 58.6793 20.3438 58.7203 20.4121 59.2261C20.5762 60.4566 21.7383 61.6461 23.0781 61.9605C23.707 62.1109 23.7891 62.1793 23.7891 62.48C23.7891 62.6851 23.9531 63.1636 24.1582 63.5601C24.582 64.4078 25.375 65.0367 26.4141 65.3511C27.084 65.5562 27.1113 65.5836 27.2754 66.2125C27.5078 67.1558 28.1094 67.9214 28.9707 68.4136C29.9141 68.9332 31.1855 68.9879 32.0605 68.5367L32.6074 68.2496L33.2227 68.7964C34.0703 69.5484 34.7676 69.8765 35.6836 69.9586C37.4609 70.1226 39.0059 69.0152 39.416 67.2652C39.5664 66.6226 39.5938 66.5953 40.1406 66.5132C41.3711 66.3355 42.5332 65.1461 42.8203 63.7652C42.9297 63.232 42.998 63.1636 43.3125 63.1636C44.5703 63.15 46.1973 61.523 46.2109 60.2652C46.2109 59.9644 46.293 59.8687 46.5938 59.8004C47.4414 59.6226 48.125 59.2945 48.5898 58.8433C49.2461 58.2144 49.5059 57.6812 49.5879 56.7789L49.6699 56.0406L59.8281 50.9547L70 45.8687V37.6382V29.3941H68.6875H67.375L65.543 30.3648L63.6973 31.3355L63.0547 31.0621C62.6992 30.9117 61.3184 30.5289 59.9922 30.2007C58.0508 29.7222 57.5586 29.5582 57.5586 29.3804C57.5586 29.2574 58.0098 28.6968 58.5703 28.15C59.582 27.1382 60.2246 26.0718 60.6621 24.7593C60.7852 24.3629 60.8945 23.3648 60.9355 22.0797C61.0176 19.5777 60.8262 18.4839 60.0059 16.8297C58.7344 14.2457 55.9453 12.441 53.2383 12.441H52.6504L53.2793 10.9918L53.9082 9.54254L50.9141 6.56207L47.9199 3.56793L46.1699 4.7027L44.4199 5.85114L43.1621 5.26324C42.4648 4.93512 41.5625 4.56598 41.1523 4.42926C40.7422 4.30621 40.332 4.11481 40.25 4.0191C40.168 3.90973 39.9219 2.96637 39.7031 1.91364L39.3203 -0.000427246H35H30.6797L30.2969 1.91364ZM37.8711 4.14215C38.0762 5.09918 38.2676 5.90582 38.2949 5.91949C38.3223 5.94684 38.9648 6.13824 39.7168 6.35699C40.4688 6.57574 41.8496 7.13629 42.7793 7.61481C44.707 8.58551 44.3789 8.61285 46.2383 7.35504C46.8945 6.91754 47.5098 6.56207 47.6055 6.56207C47.8516 6.56207 51.1328 9.87067 51.1328 10.1168C51.1191 10.2261 50.8594 10.9371 50.5312 11.689C49.998 12.9468 49.9023 13.0836 49.3418 13.3843C49.0137 13.5621 48.4395 13.9586 48.0703 14.2593C47.4961 14.7379 47.3867 14.7789 47.2773 14.5875C46.9355 13.9586 45.4043 12.2086 44.6113 11.5523C42.4375 9.7066 40.1133 8.59918 37.4062 8.13434C32.293 7.25934 26.9199 9.28278 23.6797 13.3297C23.2148 13.8902 22.791 14.4644 22.7227 14.5875C22.5996 14.7925 22.5312 14.7789 22.0801 14.4097C21.8066 14.191 21.2324 13.7945 20.8086 13.5211C20.084 13.0699 20.002 12.9605 19.4551 11.689C19.127 10.9507 18.8672 10.2535 18.8672 10.1304C18.8672 9.87067 22.1348 6.56207 22.3945 6.56207C22.4902 6.56207 23.1055 6.91754 23.7617 7.35504C25.6211 8.61285 25.293 8.58551 27.2207 7.61481C28.1504 7.13629 29.5312 6.57574 30.2832 6.35699C31.0352 6.13824 31.6777 5.94684 31.7051 5.93317C31.7324 5.90582 31.8965 5.19489 32.0879 4.34723C32.2656 3.49957 32.4434 2.69293 32.4844 2.55621C32.5527 2.33746 32.7715 2.32379 35.0273 2.35114L37.502 2.39215L37.8711 4.14215ZM37.3242 10.4175C40.6602 11.0464 43.627 13.0972 45.582 16.1187L45.9648 16.7066L45.5684 17.8961C45.2129 19.0035 45.1855 19.2086 45.1855 21.3961C45.1992 24.0621 45.3633 24.9234 46.1699 26.3863C46.4434 26.8785 47.0859 27.6851 47.6055 28.2047C48.1113 28.7105 48.5352 29.23 48.5352 29.3668C48.5352 29.5582 48.1387 29.7086 46.2793 30.1597L44.0234 30.7203L41.7676 30.1597C39.8945 29.6949 39.5117 29.5582 39.5117 29.3531C39.5117 29.2164 39.8945 28.7515 40.373 28.314C41.3711 27.3707 42.1367 26.1539 42.5605 24.814C42.8203 23.98 42.8613 23.5562 42.8613 21.5328C42.8613 19.6734 42.8066 19.0445 42.6152 18.3882C41.7266 15.4898 39.457 13.2886 36.6953 12.6324C35.4648 12.3453 33.6191 12.441 32.4434 12.8511C30.1328 13.6578 28.2324 15.5992 27.4668 17.9371C27.166 18.8394 27.1387 19.1675 27.1387 21.3961C27.1387 23.5562 27.1797 23.9664 27.4395 24.814C27.8633 26.1539 28.6289 27.3707 29.6406 28.314C30.1055 28.7515 30.4883 29.2164 30.4883 29.3531C30.4883 29.5582 30.1055 29.6949 28.2324 30.1597L25.9766 30.7203L23.7207 30.1597C21.9297 29.7222 21.4648 29.5582 21.4648 29.3804C21.4648 29.2574 21.8887 28.7242 22.3945 28.2183C22.9141 27.6988 23.5566 26.8785 23.8301 26.3863C24.6367 24.9371 24.8145 24.0621 24.8008 21.4644C24.8008 19.3316 24.7734 19.1402 24.3906 18.0328L23.9941 16.857L24.4043 16.1734C27.0703 11.7711 32.252 9.46051 37.3242 10.4175ZM18.8398 15.066C20.2207 15.5855 21.5742 16.939 22.1621 18.4156C22.4629 19.1402 22.4902 19.4136 22.4902 21.6011V23.9937L22.0254 24.9371C21.5195 25.9898 20.6172 26.9742 19.7148 27.48L19.127 27.8082L19.168 29.5855L19.209 31.3629L21.0547 31.8277C22.0664 32.0738 22.9141 32.3062 22.9414 32.3336C22.9688 32.3609 22.8457 32.5933 22.6543 32.8394C21.916 33.8238 21.5059 35.0543 21.4238 36.5035L21.3965 37.105L19.7559 37.4879C18.8535 37.6929 18.0879 37.857 18.0469 37.8707C18.0059 37.8707 17.9922 37.3375 18.0195 36.6675L18.0605 35.4781L15.1348 33.7691C13.5078 32.8257 12.2637 32.0191 12.3457 31.9781C12.4414 31.9234 12.9883 31.773 13.5762 31.6363L14.6289 31.3902V29.5855V27.7808L13.959 27.3433C13.0293 26.7554 12.3594 25.9761 11.8398 24.8961C11.4297 24.0074 11.416 23.939 11.375 21.7105C11.334 19.8238 11.3613 19.2906 11.5664 18.7027C11.9082 17.6363 12.373 16.898 13.166 16.1871C14.752 14.7515 16.8574 14.3414 18.8398 15.066ZM36.709 14.9976C38.5547 15.6402 40.0312 17.3218 40.4688 19.2769C40.5645 19.7418 40.6191 20.7672 40.5781 22.0113C40.5371 23.8433 40.5098 24.0621 40.1543 24.8004C39.6621 25.8804 38.9648 26.7007 38.0625 27.3023L37.3242 27.7945V29.5855V31.3765L40.5781 32.1832C44.0234 33.0445 44.8711 33.3589 45.4453 34.0562C46.1836 34.9312 46.252 35.273 46.2656 38.0074L46.2793 40.5367L45.7734 40.5777C45.4453 40.605 43.9824 40.2632 41.6719 39.607C39.6895 39.0464 37.7617 38.5406 37.3926 38.4859C37.0098 38.4312 35.4512 38.0074 33.9062 37.5289C30.4746 36.4625 30.2832 36.4078 28.8887 36.2437C27.8359 36.107 26.1406 36.189 24.2949 36.4488L23.6387 36.5445L23.7344 35.9429C23.9395 34.6714 24.5273 33.8101 25.5527 33.3043C25.8945 33.1265 27.6445 32.6207 29.4355 32.1832L32.6758 31.3765V29.5855V27.7808L32.0059 27.3433C31.0762 26.7554 30.4062 25.9761 29.8867 24.8961L29.4629 23.9937V21.4507V18.9214L29.9824 17.8824C31.2402 15.3257 34.1113 14.0953 36.709 14.9976ZM54.7559 14.9976C56.1777 15.4488 57.3125 16.4879 58.0781 18.0191L58.584 19.0582V21.5191V23.9937L58.1602 24.8961C57.6406 25.9761 56.9707 26.7554 56.041 27.3433L55.3711 27.7808V29.5855V31.3902L58.1055 32.0601C60.1836 32.566 60.7988 32.7711 60.6621 32.8941C60.4844 33.0582 48.7402 39.2379 48.6172 39.2379C48.5762 39.2379 48.5352 38.4175 48.5352 37.4195C48.5352 35.0816 48.2617 34.0699 47.3457 32.8394C47.1543 32.5933 47.0312 32.3609 47.0586 32.3336C47.0859 32.3062 47.9336 32.0738 48.9453 31.8277L50.791 31.3629L50.832 29.5855L50.873 27.8082L50.2852 27.48C49.3828 26.9742 48.4805 25.9898 47.9746 24.9371C47.5371 24.0211 47.5234 23.939 47.4688 21.9429C47.3867 18.9078 47.7422 17.7047 49.1641 16.3238C50.709 14.8199 52.6777 14.355 54.7559 14.9976ZM7.15039 31.732C9.33789 33.0172 11.1562 34.0699 11.1699 34.0836C11.2109 34.1246 7.15039 50.3121 7.08203 50.3804C7.05469 50.4214 5.96094 50.0933 4.67578 49.6558L2.32422 48.8765V39.1422V29.3941H2.73438C3.02148 29.3941 4.36133 30.105 7.15039 31.732ZM67.6758 38.1851V44.5015L58.2012 49.232L48.7266 53.9761L43.75 49.4781C38.0215 44.3101 37.6934 44.0914 35.957 44.0914C34.6855 44.0914 34.3711 44.2144 31.8691 45.732C29.1348 47.3726 28.9297 47.4683 28.3691 47.3589C27.3848 47.1812 26.8379 46.0738 27.2617 45.0757C27.4531 44.6109 27.6992 44.4605 31.1309 42.7515C34.959 40.8375 35.8887 40.4957 36.9551 40.6734C37.2695 40.7281 39.2383 41.2613 41.3301 41.8492C43.9141 42.5875 45.3496 42.9293 45.8418 42.9293C46.5117 42.9293 47.127 42.6148 57.0117 37.4058C62.7676 34.357 67.5117 31.8687 67.5801 31.8687C67.6348 31.855 67.6758 34.6988 67.6758 38.1851ZM15.7637 36.7769C15.8457 36.8453 11.7168 51.7339 11.5664 51.9117C11.498 51.9937 9.29688 51.2007 9.29688 51.105C9.29688 50.982 13.0977 35.7379 13.1934 35.4507C13.2344 35.3414 13.6582 35.5191 14.4512 35.9839C15.1074 36.3668 15.709 36.7222 15.7637 36.7769ZM29.1895 38.5543C30.1328 38.7047 32.4023 39.3746 32.4023 39.4976C32.4023 39.5523 31.1035 40.2359 29.5039 41.0152C25.4023 43.0386 24.9512 43.5035 24.9512 45.732C24.9512 47.1812 25.1699 47.7418 26.0723 48.6304C26.7559 49.2867 27.6445 49.6285 28.6973 49.6285C29.627 49.6285 30.1465 49.3961 32.7441 47.8375C33.7969 47.1949 34.8359 46.607 35.041 46.5113C35.5332 46.2925 36.3809 46.3062 36.873 46.5113C37.4473 46.7711 46.9219 55.3023 47.209 55.8218C47.6602 56.6558 47.0859 57.5582 46.0879 57.5582C45.6094 57.5582 45.2812 57.3257 42.3691 54.8922C40.6055 53.4293 39.1426 52.2398 39.1016 52.2398C39.0195 52.2398 37.7344 53.8121 37.7344 53.9078C37.7344 53.9488 39.0469 55.0699 40.6465 56.3961C43.5723 58.8297 44.0234 59.2808 44.0234 59.855C44.0234 60.3472 43.3125 60.9761 42.7656 60.9761C42.1914 60.9761 42.2188 60.9898 38.6914 58.064L35.752 55.6168L35.041 56.4097C34.6445 56.8609 34.3164 57.2437 34.3164 57.2847C34.3164 57.3257 35.6426 58.4605 37.2695 59.814C38.8965 61.1675 40.3047 62.398 40.4141 62.5484C40.7148 62.9859 40.6465 63.6148 40.25 63.9976C39.7715 64.4488 38.9922 64.4214 38.3223 63.9019C37.2969 63.1363 35.5469 61.6324 35.5469 61.5093C35.5469 61.4547 35.2871 61.1539 34.9727 60.8531C34.4395 60.3336 33.4824 59.8824 32.9219 59.8824C32.7441 59.8824 32.6758 59.773 32.6758 59.4996C32.6758 59.2945 32.5117 58.7886 32.3066 58.3922C31.8828 57.5445 31.0898 56.9156 30.0508 56.6011C29.3809 56.3961 29.3535 56.3687 29.1895 55.7535C29.1074 55.398 28.8613 54.8648 28.6699 54.564C28.2734 53.9761 27.0703 53.1832 26.5645 53.1832C26.1543 53.1832 25.8945 52.8824 25.7852 52.2672C25.5527 50.9136 23.9668 49.7105 22.4219 49.7242C21.2051 49.7379 20.5215 50.1207 18.9629 51.6793L17.6094 53.0328L15.9688 52.0621C15.0801 51.5289 14.3145 51.0367 14.2734 50.982C14.2188 50.8863 17.1309 40.523 17.2539 40.4C17.3086 40.3453 24.9102 38.65 25.7031 38.5132C26.373 38.4039 28.3828 38.4175 29.1895 38.5543ZM23.0098 52.1168C23.4746 52.3629 23.6387 52.6636 23.6523 53.2379C23.6523 53.7164 23.543 53.8668 22.5312 54.9195C21.9023 55.5621 21.2188 56.1636 21.0137 56.2867C20.207 56.6968 19.25 56.0953 19.25 55.1519C19.25 54.6871 19.373 54.523 20.6035 53.2925C22.0254 51.898 22.3262 51.7476 23.0098 52.1168ZM26.6328 55.6441C26.9746 55.9722 27.1387 56.4644 27.0156 56.9019C26.9746 57.0797 26.3594 57.7906 25.6621 58.4879C24.5 59.65 24.3223 59.773 23.8711 59.773C22.9961 59.773 22.4219 58.9937 22.6953 58.1734C22.791 57.9 23.3379 57.2437 24.0625 56.5464C25.1699 55.48 25.334 55.3707 25.8125 55.3707C26.1543 55.3707 26.4414 55.4664 26.6328 55.6441ZM30.1465 59.2261C30.7754 59.9781 30.584 60.4429 28.9434 62.0289C27.877 63.0679 27.7402 63.1636 27.2344 63.1636C26.7832 63.1636 26.6191 63.0816 26.332 62.7398C25.7031 62.0015 25.8262 61.6461 27.1797 60.2515C28.8066 58.5699 29.4219 58.3648 30.1465 59.2261ZM33.4551 62.5074C34.166 63.1773 33.9883 63.7925 32.6348 65.1734C31.1855 66.6773 30.6113 66.8961 29.8184 66.2261C29.4766 65.939 29.3945 65.775 29.3945 65.3375C29.3945 64.8453 29.5039 64.6949 30.4883 63.6558C32.0469 62.0425 32.6895 61.7964 33.4551 62.5074ZM36.9414 65.8297C37.0781 65.98 37.1875 66.3082 37.1875 66.5679C37.1875 67.689 35.9707 68.0445 34.8906 67.2515C34.5762 67.0191 34.3164 66.7867 34.3164 66.732C34.3164 66.6773 34.4941 66.4586 34.7266 66.2398C34.9453 66.0211 35.3008 65.6109 35.4922 65.3238L35.8613 64.7906L36.2852 65.1734C36.5176 65.3785 36.8184 65.6793 36.9414 65.8297Z" fill="white"/>
</svg>
