<svg width="22" height="23" viewBox="0 0 22 23" fill="none" xmlns="http://www.w3.org/2000/svg">
<path d="M7.63238 2.39012L7.1341 1.82956V1.82956L7.63238 2.39012ZM14.3676 2.39012L14.8659 1.82956L14.3676 2.39012ZM14.1519 2.19834L13.6536 2.7589L14.1519 2.19834ZM7.84813 2.19834L8.3464 2.7589V2.7589L7.84813 2.19834ZM3.06107 20.4418L3.50191 19.835L3.06107 20.4418ZM1.95491 19.3356L2.56168 18.8948L1.95491 19.3356ZM20.0451 19.3356L19.4383 18.8948L20.0451 19.3356ZM18.9389 20.4418L18.4981 19.835L18.9389 20.4418ZM20.25 7.38161V12.3967H21.75V7.38161H20.25ZM12 20.6467H10V22.1467H12V20.6467ZM1.75 12.3967V7.38161H0.25V12.3967H1.75ZM13.6536 2.7589L13.8694 2.95068L14.8659 1.82956L14.6501 1.63778L13.6536 2.7589ZM8.13065 2.95068L8.3464 2.7589L7.34986 1.63778L7.1341 1.82956L8.13065 2.95068ZM4.98493 4.14668C6.14458 4.14668 7.26391 3.72111 8.13065 2.95068L7.1341 1.82956C6.54195 2.35593 5.77721 2.64668 4.98493 2.64668V4.14668ZM13.8694 2.95068C14.7361 3.72111 15.8554 4.14668 17.0151 4.14668V2.64668C16.2228 2.64668 15.4581 2.35593 14.8659 1.82956L13.8694 2.95068ZM14.6501 1.63778C12.5685 -0.212594 9.43153 -0.212594 7.34986 1.63778L8.3464 2.7589C9.85975 1.4137 12.1403 1.4137 13.6536 2.7589L14.6501 1.63778ZM10 20.6467C8.10843 20.6467 6.74999 20.6456 5.69804 20.5317C4.66013 20.4192 4.00992 20.2041 3.50191 19.835L2.62023 21.0485C3.42656 21.6344 4.37094 21.8967 5.53648 22.0229C6.68798 22.1477 8.14184 22.1467 10 22.1467V20.6467ZM0.25 12.3967C0.25 14.2548 0.248971 15.7087 0.373728 16.8602C0.500006 18.0257 0.762324 18.9701 1.34815 19.7764L2.56168 18.8948C2.19259 18.3868 1.97745 17.7365 1.865 16.6986C1.75103 15.6467 1.75 14.2882 1.75 12.3967H0.25ZM3.50191 19.835C3.14111 19.5729 2.82382 19.2556 2.56168 18.8948L1.34815 19.7764C1.70281 20.2646 2.13209 20.6939 2.62023 21.0485L3.50191 19.835ZM20.25 12.3967C20.25 14.2882 20.249 15.6467 20.135 16.6986C20.0225 17.7365 19.8074 18.3868 19.4383 18.8948L20.6518 19.7764C21.2377 18.9701 21.5 18.0257 21.6263 16.8602C21.751 15.7087 21.75 14.2548 21.75 12.3967H20.25ZM12 22.1467C13.8582 22.1467 15.312 22.1477 16.4635 22.0229C17.6291 21.8967 18.5734 21.6344 19.3798 21.0485L18.4981 19.835C17.9901 20.2041 17.3399 20.4192 16.302 20.5317C15.25 20.6456 13.8916 20.6467 12 20.6467V22.1467ZM19.4383 18.8948C19.1762 19.2556 18.8589 19.5729 18.4981 19.835L19.3798 21.0485C19.8679 20.6939 20.2972 20.2646 20.6518 19.7764L19.4383 18.8948ZM21.75 7.38161C21.75 4.76658 19.6301 2.64668 17.0151 2.64668V4.14668C18.8017 4.14668 20.25 5.59501 20.25 7.38161H21.75ZM1.75 7.38161C1.75 5.59501 3.19833 4.14668 4.98493 4.14668V2.64668C2.3699 2.64668 0.25 4.76658 0.25 7.38161H1.75ZM6.25 12.3967C6.25 15.02 8.37665 17.1467 11 17.1467V15.6467C9.20507 15.6467 7.75 14.1916 7.75 12.3967H6.25ZM11 17.1467C13.6234 17.1467 15.75 15.02 15.75 12.3967H14.25C14.25 14.1916 12.7949 15.6467 11 15.6467V17.1467ZM15.75 12.3967C15.75 9.77332 13.6234 7.64668 11 7.64668V9.14668C12.7949 9.14668 14.25 10.6018 14.25 12.3967H15.75ZM11 7.64668C8.37665 7.64668 6.25 9.77332 6.25 12.3967H7.75C7.75 10.6018 9.20507 9.14668 11 9.14668V7.64668Z" fill="white"/>
<path d="M16 7.39673C16 7.94901 16.4477 8.39673 17 8.39673C17.5523 8.39673 18 7.94901 18 7.39673C18 6.84444 17.5523 6.39673 17 6.39673C16.4477 6.39673 16 6.84444 16 7.39673Z" fill="white"/>
</svg>
