<svg width="70" height="70" viewBox="0 0 70 70" fill="none" xmlns="http://www.w3.org/2000/svg">
<path d="M55.0932 46.6663L53.7782 45.9448L55.0932 46.6663ZM14.9075 46.6663L13.5924 47.3879L14.9075 46.6663ZM8.82388 23.9416L7.32579 24.0173L8.82388 23.9416ZM50.3273 53.3148L51.4615 54.2965L50.3273 53.3148ZM19.6733 53.3148L20.8075 52.3331L19.6733 53.3148ZM61.2005 22.274L62.6994 22.3314L61.2005 22.274ZM44.9182 30.1075C45.438 29.4624 45.3364 28.5181 44.6913 27.9983C44.0463 27.4786 43.102 27.5801 42.5822 28.2252L44.9182 30.1075ZM37.8541 36.4836L36.6861 35.5425L37.8541 36.4836ZM27.7712 36.4836L26.6032 37.4248L27.7712 36.4836ZM27.4182 33.6548C26.8984 33.0097 25.9541 32.9081 25.309 33.4279C24.664 33.9477 24.5624 34.892 25.0822 35.5371L27.4182 33.6548ZM59.7016 22.2165C59.4692 28.2829 58.2871 37.7278 53.7782 45.9448L56.4083 47.3879C61.2432 38.5767 62.4596 28.5903 62.6994 22.3314L59.7016 22.2165ZM53.7782 45.9448C52.6129 48.0684 51.0096 50.2345 49.1932 52.3331L51.4615 54.2965C53.3633 52.0992 55.1083 49.757 56.4083 47.3879L53.7782 45.9448ZM20.8075 52.3331C18.991 50.2345 17.3878 48.0684 16.2225 45.9448L13.5924 47.3879C14.8924 49.757 16.6373 52.0992 18.5392 54.2965L20.8075 52.3331ZM16.2225 45.9448C11.8412 37.9602 10.6032 29.4358 10.322 23.866L7.32579 24.0173C7.61912 29.8276 8.90979 38.8542 13.5924 47.3879L16.2225 45.9448ZM15.0814 19.2427H15.9822V16.2427H15.0814V19.2427ZM53.1678 17.5413H54.8867V14.5413H53.1678V17.5413ZM46.5636 10.9372C46.5636 14.5846 49.5204 17.5413 53.1678 17.5413V14.5413C51.1773 14.5413 49.5636 12.9277 49.5636 10.9372H46.5636ZM15.9822 19.2427C20.0994 19.2427 23.4371 15.9051 23.4371 11.7879H20.4371C20.4371 14.2482 18.4426 16.2427 15.9822 16.2427V19.2427ZM27.8919 4.33301C23.7747 4.33301 20.4371 7.67066 20.4371 11.7879H23.4371C23.4371 9.32752 25.4316 7.33301 27.8919 7.33301V4.33301ZM10.322 23.866C10.1935 21.3213 12.2937 19.2427 15.0814 19.2427V16.2427C10.8218 16.2427 7.09894 19.5237 7.32579 24.0173L10.322 23.866ZM49.1932 52.3331C46.2655 55.7157 44.2207 58.0652 42.1112 59.6106C40.1005 61.0836 38.0253 61.8226 35.0003 61.8226V64.8226C38.6403 64.8226 41.3412 63.8937 43.8841 62.0307C46.3282 60.2402 48.6145 57.5858 51.4615 54.2965L49.1932 52.3331ZM18.5392 54.2965C21.3862 57.5858 23.6725 60.2402 26.1166 62.0307C28.6595 63.8937 31.3604 64.8226 35.0003 64.8226V61.8226C31.9754 61.8226 29.9002 61.0836 27.8895 59.6106C25.78 58.0652 23.7352 55.7157 20.8075 52.3331L18.5392 54.2965ZM42.9595 7.33301C44.95 7.33301 46.5636 8.94665 46.5636 10.9372H49.5636C49.5636 7.28979 46.6068 4.33301 42.9595 4.33301V7.33301ZM62.6994 22.3314C62.871 17.8507 59.1667 14.5413 54.8867 14.5413V17.5413C57.6723 17.5413 59.8004 19.6369 59.7016 22.2165L62.6994 22.3314ZM42.5822 28.2252L36.6861 35.5425L39.0222 37.4248L44.9182 30.1075L42.5822 28.2252ZM28.9393 35.5425L27.4182 33.6548L25.0822 35.5371L26.6032 37.4248L28.9393 35.5425ZM36.6861 35.5425C35.4888 37.0284 34.6897 38.0145 34.0098 38.6494C33.3572 39.2589 33.0326 39.333 32.8127 39.333V42.333C34.1297 42.333 35.1576 41.6822 36.0574 40.8419C36.9299 40.0271 37.8831 38.8385 39.0222 37.4248L36.6861 35.5425ZM26.6032 37.4248C27.7423 38.8385 28.6955 40.0271 29.568 40.8419C30.4678 41.6822 31.4957 42.333 32.8127 42.333V39.333C32.5928 39.333 32.2682 39.2589 31.6156 38.6494C30.9357 38.0145 30.1366 37.0284 28.9393 35.5425L26.6032 37.4248ZM27.8919 7.33301H42.9595V4.33301H27.8919V7.33301Z" fill="white"/>
</svg>
