<svg width="30" height="21" viewBox="0 0 30 21" fill="none" xmlns="http://www.w3.org/2000/svg">
<path d="M17.9803 4.80417C17.9803 6.51876 16.6043 7.89741 14.9208 7.89741V9.39741C17.4452 9.39741 19.4803 7.3347 19.4803 4.80417H17.9803ZM14.9208 7.89741C13.2373 7.89741 11.8613 6.51876 11.8613 4.80417H10.3613C10.3613 7.3347 12.3964 9.39741 14.9208 9.39741V7.89741ZM11.8613 4.80417C11.8613 3.08958 13.2373 1.71094 14.9208 1.71094V0.210938C12.3964 0.210938 10.3613 2.27364 10.3613 4.80417H11.8613ZM14.9208 1.71094C16.6043 1.71094 17.9803 3.08958 17.9803 4.80417H19.4803C19.4803 2.27364 17.4452 0.210938 14.9208 0.210938V1.71094ZM11.1113 13.2406H18.7303V11.7406H11.1113V13.2406ZM18.7303 19.4271H11.1113V20.9271H18.7303V19.4271ZM11.1113 19.4271C9.42777 19.4271 8.05176 18.0485 8.05176 16.3339H6.55176C6.55176 18.8644 8.58691 20.9271 11.1113 20.9271V19.4271ZM21.7899 16.3339C21.7899 18.0485 20.4138 19.4271 18.7303 19.4271V20.9271C21.2547 20.9271 23.2899 18.8644 23.2899 16.3339H21.7899ZM18.7303 13.2406C20.4138 13.2406 21.7899 14.6193 21.7899 16.3339H23.2899C23.2899 13.8034 21.2547 11.7406 18.7303 11.7406V13.2406ZM11.1113 11.7406C8.58691 11.7406 6.55176 13.8034 6.55176 16.3339H8.05176C8.05176 14.6193 9.42777 13.2406 11.1113 13.2406V11.7406Z" fill="#fff"/>
<path d="M9.52653 8.18437C9.32624 7.85977 8.95043 7.68647 8.57143 7.68647C6.99347 7.68647 5.71429 6.39597 5.71429 4.80405C5.71429 3.21212 6.99347 1.92162 8.57143 1.92162C8.95043 1.92162 9.32624 1.74832 9.52653 1.42372C9.53539 1.40937 9.5443 1.39505 9.55327 1.38077C9.88673 0.849749 9.71777 0.0978752 9.09841 0.0290846C8.92537 0.00986558 8.74954 0 8.57143 0C5.9415 0 3.80952 2.15084 3.80952 4.80405C3.80952 7.45725 5.9415 9.60809 8.57143 9.60809C8.74954 9.60809 8.92538 9.59823 9.09842 9.57901C9.71777 9.51022 9.88673 8.75834 9.55327 8.22732C9.5443 8.21304 9.53539 8.19872 9.52653 8.18437Z" fill="#fff" />
<path d="M5.66132 18.341C5.51717 18.0984 5.26272 17.9351 4.98233 17.9351H4.7619C3.18395 17.9351 1.90476 16.6446 1.90476 15.0527C1.90476 13.4608 3.18395 12.1702 4.7619 12.1702H4.98233C5.26272 12.1702 5.51717 12.0069 5.66132 11.7643C6.01319 11.1721 5.63135 10.2486 4.94691 10.2486H4.7619C2.13198 10.2486 0 12.3995 0 15.0527C0 17.7059 2.13198 19.8567 4.7619 19.8567H4.94691C5.63135 19.8567 6.01319 18.9333 5.66132 18.341Z" fill="#fff" />
<path d="M20.288 8.22732C19.9545 8.75834 20.1235 9.51022 20.7429 9.57901C20.9159 9.59823 21.0917 9.60809 21.2698 9.60809C23.8998 9.60809 26.0317 7.45725 26.0317 4.80405C26.0317 2.15084 23.8998 0 21.2698 0C21.0917 0 20.9159 0.00986564 20.7429 0.0290848C20.1235 0.0978755 19.9545 0.849749 20.288 1.38077C20.297 1.39505 20.3059 1.40936 20.3147 1.42372C20.515 1.74832 20.8908 1.92162 21.2698 1.92162C22.8478 1.92162 24.127 3.21212 24.127 4.80405C24.127 6.39597 22.8478 7.68647 21.2698 7.68647C20.8908 7.68647 20.515 7.85977 20.3147 8.18437C20.3059 8.19872 20.297 8.21304 20.288 8.22732Z" fill="#fff" />
<path d="M24.18 18.341C23.8281 18.9333 24.2099 19.8567 24.8944 19.8567H25.0794C27.7093 19.8567 29.8413 17.7059 29.8413 15.0527C29.8413 12.3995 27.7093 10.2486 25.0794 10.2486H24.8944C24.2099 10.2486 23.8281 11.1721 24.18 11.7643C24.3241 12.0069 24.5785 12.1702 24.8589 12.1702H25.0794C26.6573 12.1702 27.9365 13.4608 27.9365 15.0527C27.9365 16.6446 26.6573 17.9351 25.0794 17.9351H24.8589C24.5785 17.9351 24.3241 18.0984 24.18 18.341Z" fill="#fff"/>
</svg>