<svg width="27" height="26" viewBox="0 0 27 26" fill="none" xmlns="http://www.w3.org/2000/svg">
<g filter="url(#filter0_d_202_122)">
<path d="M3.22439 14.4643L4.17544 14.1553L3.22439 14.4643ZM2.14244 8.45481L1.18069 8.18087L2.14244 8.45481ZM6.66041 3.8893L6.07262 3.08028L6.66041 3.8893ZM2.25281 8.11512L3.1919 8.45879L2.25281 8.11512ZM6.17032 20.172L5.61258 21.002L6.17032 20.172ZM5.88135 19.962L5.26431 20.7489L5.88135 19.962ZM21.2156 14.4643L20.2646 14.1553L21.2156 14.4643ZM18.5587 19.962L19.1757 20.7489L18.5587 19.962ZM18.2697 20.172L18.8274 21.002L18.2697 20.172ZM17.7796 3.8893L18.3674 3.08028L17.7796 3.8893ZM22.1872 8.11512L21.2481 8.45879L22.1872 8.11512ZM22.2976 8.45481L23.2593 8.18087L22.2976 8.45481ZM12.3986 1.00327L12.4353 0.00394684L12.3986 1.00327ZM12.0414 1.00327L12.0048 0.00394684L12.0414 1.00327ZM11.22 18.3614C11.22 18.9137 11.6677 19.3614 12.22 19.3614C12.7723 19.3614 13.22 18.9137 13.22 18.3614H11.22ZM13.22 16.4129C13.22 15.8606 12.7723 15.4129 12.22 15.4129C11.6677 15.4129 11.22 15.8606 11.22 16.4129H13.22ZM16.1172 20.8816L16.2374 21.8743L16.1172 20.8816ZM4.17544 14.1553C3.67251 12.6074 3.32114 11.5216 3.1375 10.6446C2.95868 9.79064 2.96149 9.22971 3.10418 8.72876L1.18069 8.18087C0.916674 9.10777 0.964244 10.0244 1.17996 11.0545C1.39086 12.0617 1.78383 13.2668 2.27333 14.7733L4.17544 14.1553ZM6.07262 3.08028C4.79109 4.01137 3.76488 4.75528 3.00223 5.44616C2.2222 6.15279 1.64495 6.86638 1.31372 7.77144L3.1919 8.45879C3.37091 7.96964 3.69834 7.51419 4.34498 6.92839C5.00902 6.32685 5.93149 5.65496 7.24819 4.69832L6.07262 3.08028ZM3.10418 8.72876C3.13011 8.63773 3.15937 8.54768 3.1919 8.45879L1.31372 7.77144C1.26439 7.90625 1.22002 8.04281 1.18069 8.18087L3.10418 8.72876ZM2.27333 14.7733C2.76283 16.2798 3.15322 17.4857 3.57461 18.4245C4.00561 19.3847 4.50589 20.1543 5.26431 20.7489L6.4984 19.1751C6.08851 18.8537 5.75653 18.4015 5.39923 17.6055C5.03232 16.7881 4.67838 15.7032 4.17544 14.1553L2.27333 14.7733ZM6.72805 19.3419C6.64948 19.2891 6.57288 19.2335 6.4984 19.1751L5.26431 20.7489C5.37727 20.8375 5.49344 20.9219 5.61258 21.002L6.72805 19.3419ZM20.2646 14.1553C19.7616 15.7032 19.4077 16.7881 19.0408 17.6055C18.6835 18.4015 18.3515 18.8537 17.9416 19.1751L19.1757 20.7489C19.9341 20.1543 20.4344 19.3847 20.8654 18.4245C21.2868 17.4857 21.6772 16.2798 22.1667 14.7733L20.2646 14.1553ZM17.9416 19.1751C17.8671 19.2335 17.7905 19.2891 17.712 19.3419L18.8274 21.002C18.9466 20.9219 19.0628 20.8375 19.1757 20.7489L17.9416 19.1751ZM17.1918 4.69832C18.5085 5.65496 19.431 6.32685 20.095 6.92839C20.7417 7.51419 21.0691 7.96964 21.2481 8.45879L23.1263 7.77144C22.7951 6.86638 22.2178 6.15279 21.4378 5.44616C20.6751 4.75528 19.6489 4.01138 18.3674 3.08028L17.1918 4.69832ZM22.1667 14.7733C22.6562 13.2668 23.0492 12.0617 23.2601 11.0545C23.4758 10.0244 23.5233 9.10777 23.2593 8.18087L21.3358 8.72876C21.4785 9.22971 21.4813 9.79064 21.3025 10.6446C21.1189 11.5216 20.7675 12.6074 20.2646 14.1553L22.1667 14.7733ZM21.2481 8.45879C21.2806 8.54768 21.3099 8.63772 21.3358 8.72876L23.2593 8.18087C23.22 8.04282 23.1756 7.90625 23.1263 7.77144L21.2481 8.45879ZM18.3674 3.08028C17.0859 2.14919 16.0612 1.40309 15.1685 0.891265C14.2554 0.367769 13.3984 0.0392788 12.4353 0.00394684L12.3619 2.0026C12.8825 2.0217 13.4168 2.19235 14.1738 2.62633C14.9511 3.07198 15.8751 3.74168 17.1918 4.69832L18.3674 3.08028ZM7.24819 4.69832C8.5649 3.74168 9.48896 3.07198 10.2663 2.62633C11.0232 2.19235 11.5576 2.0217 12.0781 2.0026L12.0048 0.00394684C11.0416 0.0392788 10.1846 0.367769 9.27151 0.891265C8.37878 1.40309 7.35416 2.14919 6.07262 3.08028L7.24819 4.69832ZM12.4353 0.00394684C12.2918 -0.00131559 12.1482 -0.00131559 12.0048 0.00394684L12.0781 2.0026C12.1727 1.99913 12.2674 1.99913 12.3619 2.0026L12.4353 0.00394684ZM15.1172 16.4129V20.31H17.1172V16.4129H15.1172ZM9.32287 20.31V16.4129H7.32287V20.31H9.32287ZM12.22 13.5157C13.8201 13.5157 15.1172 14.8128 15.1172 16.4129H17.1172C17.1172 13.7083 14.9246 11.5157 12.22 11.5157V13.5157ZM12.22 11.5157C9.5154 11.5157 7.32287 13.7082 7.32287 16.4129H9.32287C9.32287 14.8128 10.62 13.5157 12.22 13.5157V11.5157ZM13.22 18.3614V16.4129H11.22V18.3614H13.22ZM12.22 22C13.8746 22 15.186 22.0017 16.2374 21.8743L15.9969 19.8889C15.0935 19.9983 13.9243 20 12.22 20V22ZM16.2374 21.8743C17.2228 21.755 18.0645 21.5146 18.8274 21.002L17.712 19.3419C17.2991 19.6194 16.795 19.7922 15.9969 19.8889L16.2374 21.8743ZM15.1172 20.31V20.8816H17.1172V20.31H15.1172ZM12.22 20C10.5157 20 9.34651 19.9983 8.44313 19.8889L8.20261 21.8743C9.25407 22.0017 10.5655 22 12.22 22V20ZM8.44313 19.8889C7.64501 19.7922 7.1409 19.6194 6.72805 19.3419L5.61258 21.002C6.37554 21.5146 7.21726 21.755 8.20261 21.8743L8.44313 19.8889ZM7.32287 20.31V20.8816H9.32287V20.31H7.32287Z" fill="#fff"/>
</g>
<defs>
<filter id="filter0_d_202_122" x="0" y="0" width="26.4399" height="26" filterUnits="userSpaceOnUse" color-interpolation-filters="sRGB">
<feFlood flood-opacity="0" result="BackgroundImageFix"/>
<feColorMatrix in="SourceAlpha" type="matrix" values="0 0 0 0 0 0 0 0 0 0 0 0 0 0 0 0 0 0 127 0" result="hardAlpha"/>
<feOffset dx="1" dy="2"/>
<feGaussianBlur stdDeviation="1"/>
<feColorMatrix type="matrix" values="0 0 0 0 1 0 0 0 0 1 0 0 0 0 1 0 0 0 0.25 0"/>
<feBlend mode="normal" in2="BackgroundImageFix" result="effect1_dropShadow_202_122"/>
<feBlend mode="normal" in="SourceGraphic" in2="effect1_dropShadow_202_122" result="shape"/>
</filter>
</defs>
</svg>
