<svg width="27" height="34" viewBox="0 0 27 34" fill="none" xmlns="http://www.w3.org/2000/svg">
<path d="M23.6831 17.843L24.6736 17.9808L23.6831 17.843ZM23.2732 20.7883L24.2637 20.9261L23.2732 20.7883ZM3.72678 20.7883L4.71723 20.6505L3.72678 20.7883ZM3.31688 17.843L2.32642 17.9808L3.31688 17.843ZM9.09945 31.8388L8.71066 32.7601H8.71066L9.09945 31.8388ZM4.86732 26.8755L5.80597 26.5306L4.86732 26.8755ZM22.1327 26.8755L23.0713 27.2204L22.1327 26.8755ZM17.9006 31.8388L17.5118 30.9175L17.9006 31.8388ZM3.55802 11.8429C3.50578 11.2931 3.01772 10.8897 2.46791 10.942C1.9181 10.9942 1.51474 11.4823 1.56698 12.0321L3.55802 11.8429ZM25.433 12.0321C25.4853 11.4823 25.0819 10.9942 24.5321 10.942C23.9823 10.8897 23.4942 11.2931 23.442 11.8429L25.433 12.0321ZM26 9.8125C26.5523 9.8125 27 9.36479 27 8.8125C27 8.26022 26.5523 7.8125 26 7.8125V9.8125ZM1 7.8125C0.447715 7.8125 0 8.26022 0 8.8125C0 9.36479 0.447715 9.8125 1 9.8125V7.8125ZM9.375 26C9.375 26.5523 9.82271 27 10.375 27C10.9273 27 11.375 26.5523 11.375 26H9.375ZM11.375 13.5C11.375 12.9477 10.9273 12.5 10.375 12.5C9.82271 12.5 9.375 12.9477 9.375 13.5H11.375ZM15.625 26C15.625 26.5523 16.0727 27 16.625 27C17.1773 27 17.625 26.5523 17.625 26H15.625ZM17.625 13.5C17.625 12.9477 17.1773 12.5 16.625 12.5C16.0727 12.5 15.625 12.9477 15.625 13.5H17.625ZM19.75 8.8125V9.8125H20.75V8.8125H19.75ZM7.25 8.8125H6.25V9.8125H7.25V8.8125ZM22.6927 17.7051L22.2828 20.6505L24.2637 20.9261L24.6736 17.9808L22.6927 17.7051ZM4.71723 20.6505L4.30733 17.7051L2.32642 17.9808L2.73632 20.9262L4.71723 20.6505ZM13.5 31.25C11.1261 31.25 10.2314 31.2311 9.48823 30.9175L8.71066 32.7601C9.91636 33.2689 11.3058 33.25 13.5 33.25V31.25ZM2.73632 20.9262C3.1746 24.0754 3.41002 25.8087 3.92867 27.2204L5.80597 26.5306C5.38001 25.3713 5.16994 23.9035 4.71723 20.6505L2.73632 20.9262ZM9.48823 30.9175C7.99105 30.2857 6.62336 28.7554 5.80597 26.5306L3.92867 27.2204C4.87768 29.8034 6.5634 31.854 8.71066 32.7601L9.48823 30.9175ZM22.2828 20.6505C21.8301 23.9035 21.62 25.3713 21.194 26.5306L23.0713 27.2204C23.59 25.8087 23.8254 24.0754 24.2637 20.9261L22.2828 20.6505ZM13.5 33.25C15.6942 33.25 17.0836 33.2689 18.2893 32.7601L17.5118 30.9175C16.7686 31.2311 15.8739 31.25 13.5 31.25V33.25ZM21.194 26.5306C20.3766 28.7554 19.0089 30.2857 17.5118 30.9175L18.2893 32.7601C20.4366 31.854 22.1223 29.8034 23.0713 27.2204L21.194 26.5306ZM4.30733 17.7051C3.96047 15.2127 3.70067 13.3443 3.55802 11.8429L1.56698 12.0321C1.71471 13.5869 1.98192 15.5054 2.32642 17.9808L4.30733 17.7051ZM24.6736 17.9808C25.0181 15.5054 25.2853 13.5869 25.433 12.0321L23.442 11.8429C23.2993 13.3443 23.0395 15.2127 22.6927 17.7051L24.6736 17.9808ZM26 7.8125H1V9.8125H26V7.8125ZM11.375 26V13.5H9.375V26H11.375ZM17.625 26V13.5H15.625V26H17.625ZM18.75 7.25V8.8125H20.75V7.25H18.75ZM19.75 7.8125H7.25V9.8125H19.75V7.8125ZM8.25 8.8125V7.25H6.25V8.8125H8.25ZM13.5 2C16.3995 2 18.75 4.35051 18.75 7.25H20.75C20.75 3.24594 17.5041 0 13.5 0V2ZM13.5 0C9.49594 0 6.25 3.24594 6.25 7.25H8.25C8.25 4.35051 10.6005 2 13.5 2V0Z" fill="#fff"/>
</svg>
