<svg width="30" height="31" viewBox="0 0 30 31" fill="none" xmlns="http://www.w3.org/2000/svg">
<path d="M5 8.85829C5 6.72741 6.72741 5 8.85829 5H21.2047C23.3008 5 25 6.69921 25 8.7953C25 9.91169 24.5085 10.9715 23.6562 11.6926L19.7448 15.0023C18.4973 16.0579 17.7778 17.6092 17.7778 19.2433V21.2218C17.7778 22.1994 17.31 23.118 16.5194 23.693L14.3625 25.2617C13.2405 26.0776 11.6667 25.2762 11.6667 23.8889V19.1106C11.6667 17.5533 11.0131 16.0675 9.86514 15.0153L6.25115 11.7024C5.45391 10.9716 5 9.93979 5 8.85829Z" stroke="#fff" stroke-width="2"/>
</svg>
