<svg width="27" height="27" viewBox="0 0 27 27" fill="none" xmlns="http://www.w3.org/2000/svg">
<path d="M3.8626 24.6737L4.45039 23.8647L3.8626 24.6737ZM2.32627 23.1374L1.51725 23.7252L2.32627 23.1374ZM24.6737 23.1374L23.8647 22.5496L24.6737 23.1374ZM23.1374 24.6737L22.5496 23.8647L23.1374 24.6737ZM23.1374 2.32627L22.5496 3.13529L23.1374 2.32627ZM24.6737 3.8626L23.8647 4.45039L24.6737 3.8626ZM3.8626 2.32627L4.45039 3.13529L3.8626 2.32627ZM2.32627 3.8626L3.13529 4.45039L2.32627 3.8626ZM2.69396 22.6121L1.79953 22.1649H1.79953L2.69396 22.6121ZM12.8056 17.6667L13.1043 16.7123L13.0537 16.6965L13.0017 16.6861L12.8056 17.6667ZM9.55289 17.1847L9.57413 18.1845L9.55289 17.1847ZM4.31047 19.7487L3.53433 19.1181L4.31047 19.7487ZM13.0454 18.738L12.1748 18.246L13.0454 18.738ZM8.46277 24.8135C8.19101 25.2943 8.36048 25.9044 8.84128 26.1761C9.32207 26.4479 9.93214 26.2784 10.2039 25.7976L8.46277 24.8135ZM23.9314 15.0419L24.5103 14.2265L23.9314 15.0419ZM14.5219 16.3245L13.7458 15.6938V15.6938L14.5219 16.3245ZM2.54142 22.9172L3.40201 23.4265L3.42003 23.396L3.43585 23.3644L2.54142 22.9172ZM8.33333 9.33333C8.33333 11.4197 10.0247 13.1111 12.1111 13.1111V11.1111C11.1293 11.1111 10.3333 10.3152 10.3333 9.33333H8.33333ZM12.1111 13.1111C14.1975 13.1111 15.8889 11.4197 15.8889 9.33333H13.8889C13.8889 10.3152 13.0929 11.1111 12.1111 11.1111V13.1111ZM15.8889 9.33333C15.8889 7.24692 14.1975 5.55556 12.1111 5.55556V7.55556C13.0929 7.55556 13.8889 8.35149 13.8889 9.33333H15.8889ZM12.1111 5.55556C10.0247 5.55556 8.33333 7.24692 8.33333 9.33333H10.3333C10.3333 8.35149 11.1293 7.55556 12.1111 7.55556V5.55556ZM13.5 25C10.8737 25 8.98438 24.9986 7.52057 24.84C6.07549 24.6835 5.16424 24.3834 4.45039 23.8647L3.27482 25.4827C4.38642 26.2904 5.68989 26.6534 7.30515 26.8284C8.90169 27.0014 10.9183 27 13.5 27V25ZM0 13.5C0 16.0817 -0.00137258 18.0983 0.171602 19.6949C0.346604 21.3101 0.709624 22.6136 1.51725 23.7252L3.13529 22.5496C2.61665 21.8358 2.31653 20.9245 2.15997 19.4794C2.00137 18.0156 2 16.1263 2 13.5H0ZM13.5 27C16.0817 27 18.0983 27.0014 19.6949 26.8284C21.3101 26.6534 22.6136 26.2904 23.7252 25.4827L22.5496 23.8647C21.8358 24.3834 20.9245 24.6835 19.4794 24.84C18.0156 24.9986 16.1263 25 13.5 25V27ZM23.8647 22.5496C23.4981 23.0543 23.0543 23.4981 22.5496 23.8647L23.7252 25.4827C24.3996 24.9927 24.9927 24.3996 25.4827 23.7252L23.8647 22.5496ZM13.5 2C16.1263 2 18.0156 2.00137 19.4794 2.15997C20.9245 2.31653 21.8358 2.61665 22.5496 3.13529L23.7252 1.51725C22.6136 0.709624 21.3101 0.346604 19.6949 0.171602C18.0983 -0.00137258 16.0817 0 13.5 0V2ZM27 13.5C27 10.9183 27.0014 8.90169 26.8284 7.30515C26.6534 5.68989 26.2904 4.38642 25.4827 3.27482L23.8647 4.45039C24.3834 5.16424 24.6835 6.07549 24.84 7.52057C24.9986 8.98438 25 10.8737 25 13.5H27ZM22.5496 3.13529C23.0543 3.50194 23.4981 3.94574 23.8647 4.45039L25.4827 3.27482C24.9927 2.60037 24.3996 2.00726 23.7252 1.51725L22.5496 3.13529ZM13.5 0C10.9183 0 8.90169 -0.00137258 7.30515 0.171602C5.68989 0.346604 4.38642 0.709624 3.27482 1.51725L4.45039 3.13529C5.16424 2.61665 6.07549 2.31653 7.52057 2.15997C8.98438 2.00137 10.8737 2 13.5 2V0ZM2 13.5C2 10.8737 2.00137 8.98438 2.15997 7.52057C2.31653 6.07549 2.61665 5.16424 3.13529 4.45039L1.51725 3.27482C0.709624 4.38642 0.346604 5.68989 0.171602 7.30515C-0.00137258 8.90169 0 10.9183 0 13.5H2ZM3.27482 1.51725C2.60038 2.00726 2.00726 2.60038 1.51725 3.27482L3.13529 4.45039C3.50194 3.94574 3.94574 3.50194 4.45039 3.13529L3.27482 1.51725ZM13.0017 16.6861C11.3896 16.3637 10.4301 16.1659 9.53166 16.1849L9.57413 18.1845C10.1996 18.1712 10.9006 18.3055 12.6094 18.6472L13.0017 16.6861ZM3.58838 23.0593C4.36771 21.5006 4.69209 20.8649 5.08661 20.3793L3.53433 19.1181C2.96767 19.8156 2.53476 20.6944 1.79953 22.1649L3.58838 23.0593ZM9.53166 16.1849C7.1988 16.2345 5.00567 17.3071 3.53433 19.1181L5.08661 20.3793C6.18754 19.0241 7.82855 18.2216 9.57413 18.1845L9.53166 16.1849ZM12.1748 18.246L8.46277 24.8135L10.2039 25.7976L13.916 19.2301L12.1748 18.246ZM24.5103 14.2265C21.0962 11.8024 16.3866 12.4443 13.7458 15.6938L15.2979 16.9551C17.2739 14.5237 20.7978 14.0434 23.3525 15.8572L24.5103 14.2265ZM13.916 19.2301C14.0965 18.9108 14.2533 18.6333 14.3934 18.3883L12.6572 17.3955C12.5141 17.6457 12.3546 17.9279 12.1748 18.246L13.916 19.2301ZM14.3934 18.3883C14.8369 17.6127 15.0783 17.2254 15.2979 16.9551L13.7458 15.6938C13.4079 16.1096 13.0912 16.6366 12.6572 17.3955L14.3934 18.3883ZM12.5069 18.621L13.2266 18.8463L13.824 16.9376L13.1043 16.7123L12.5069 18.621ZM26.6863 16.2443C25.6702 15.2282 25.0704 14.6242 24.5103 14.2265L23.3525 15.8572C23.7395 16.1321 24.1934 16.5798 25.2721 17.6585L26.6863 16.2443ZM25 13.5C25 14.8072 25 15.9369 24.9794 16.9307L26.979 16.9721C27 15.9533 27 14.8012 27 13.5H25ZM24.9794 16.9307C24.9166 19.962 24.6534 21.4641 23.8647 22.5496L25.4827 23.7252C26.6824 22.0741 26.917 19.9647 26.979 16.9721L24.9794 16.9307ZM1.79953 22.1649L1.647 22.4699L3.43585 23.3644L3.58838 23.0593L1.79953 22.1649ZM4.45039 23.8647C3.96405 23.5114 3.53423 23.0864 3.17551 22.6043L1.57101 23.7983C2.05042 24.4425 2.62485 25.0105 3.27482 25.4827L4.45039 23.8647ZM3.17551 22.6043C3.162 22.5862 3.1486 22.5679 3.13529 22.5496L1.51725 23.7252C1.53503 23.7497 1.55295 23.774 1.57101 23.7983L3.17551 22.6043ZM1.68084 22.4078L1.51268 22.692L3.23384 23.7106L3.40201 23.4265L1.68084 22.4078Z" fill="white"/>
</svg>
