<?xml version="1.0" standalone="no"?>
<!DOCTYPE svg PUBLIC "-//W3C//DTD SVG 20010904//EN"
 "http://www.w3.org/TR/2001/REC-SVG-20010904/DTD/svg10.dtd">
<svg version="1.0" xmlns="http://www.w3.org/2000/svg"
 width="512.000000pt" height="512.000000pt" viewBox="0 0 512.000000 512.000000"
 preserveAspectRatio="xMidYMid meet">

<g transform="translate(0.000000,512.000000) scale(0.100000,-0.100000)"
fill="#000000" stroke="none">
<path d="M2455 5074 c-231 -32 -316 -58 -366 -111 -19 -21 -47 -57 -62 -79
-14 -23 -71 -81 -126 -128 -141 -123 -247 -259 -330 -425 -35 -68 -111 -284
-111 -314 0 -11 -15 -37 -34 -59 -57 -66 -70 -103 -74 -203 -2 -74 0 -96 16
-125 25 -45 70 -76 125 -84 l44 -7 17 -82 c68 -320 262 -714 453 -917 l73 -78
0 -80 c0 -95 -7 -118 -55 -171 -57 -62 -132 -106 -256 -149 -254 -89 -728
-261 -783 -286 -93 -41 -214 -127 -299 -211 -175 -174 -281 -397 -307 -646 -5
-56 -10 -276 -10 -490 l0 -389 2190 0 2190 0 0 439 c0 473 -3 513 -54 665 -82
243 -257 458 -473 579 -82 47 -133 66 -595 232 -345 124 -405 149 -463 190
-39 27 -79 67 -96 93 -26 41 -29 54 -29 130 l0 84 71 76 c188 202 358 537 444
877 l32 130 42 6 c45 6 83 30 115 73 18 23 21 42 21 124 0 106 -10 137 -67
206 -23 28 -38 64 -54 125 -26 105 -82 242 -135 333 -85 145 -176 250 -332
381 -31 26 -69 69 -83 95 -63 109 -119 143 -298 177 -80 16 -286 27 -341 19z
m358 -189 c92 -20 99 -25 151 -102 25 -38 95 -114 157 -173 62 -58 140 -141
172 -185 83 -111 162 -279 196 -415 23 -94 32 -115 63 -147 47 -50 58 -73 58
-122 l0 -41 -1055 0 -1055 0 0 43 c0 47 40 116 79 136 13 8 23 30 31 68 37
177 141 400 249 535 36 46 103 112 148 148 86 69 132 120 165 183 23 45 54 61
165 82 99 18 377 13 476 -10z m601 -1382 c-4 -21 -19 -81 -35 -133 -141 -479
-428 -868 -701 -951 -109 -33 -203 -24 -310 29 -193 96 -357 288 -504 587 -82
168 -186 480 -166 499 3 3 392 6 864 6 l859 0 -7 -37z m-1113 -1202 c169 -75
328 -77 494 -6 45 19 84 35 88 35 4 0 7 -17 7 -37 0 -46 37 -127 79 -175 17
-20 31 -40 31 -45 0 -4 -33 -41 -73 -81 l-72 -72 -295 0 -296 0 -73 74 -73 74
40 54 c51 67 72 116 72 168 0 22 2 40 4 40 2 0 32 -13 67 -29z m-211 -436
l105 -105 365 0 365 0 106 106 106 106 89 -35 c49 -20 101 -39 117 -42 l27 -7
0 -469 0 -469 -810 0 -810 0 0 463 0 463 113 46 c61 25 114 46 117 47 3 1 52
-46 110 -104z m-510 -485 l0 -440 -80 0 -80 0 2 413 3 412 75 27 c41 15 76 27
78 27 1 1 2 -197 2 -439z m2118 -27 l2 -413 -80 0 -80 0 0 440 0 439 78 -27
77 -27 3 -412z m-2433 -410 c-3 -10 -37 -13 -125 -13 l-120 0 0 -365 0 -365
-240 0 -240 0 0 355 c0 286 3 371 16 433 48 234 188 441 384 568 68 44 151 82
260 119 l65 22 3 -371 c1 -204 0 -377 -3 -383z m2712 719 c135 -52 229 -109
320 -196 124 -117 207 -251 255 -408 21 -69 22 -95 26 -465 l3 -393 -240 0
-241 0 0 370 0 370 -125 0 -125 0 0 380 c0 303 3 380 13 380 7 0 58 -17 114
-38z m-47 -1172 l0 -290 -1375 0 -1375 0 0 290 0 290 1375 0 1375 0 0 -290z"/>
<path d="M1340 540 l0 -80 165 0 166 0 -3 78 -3 77 -162 3 -163 2 0 -80z"/>
<path d="M3457 613 c-4 -3 -7 -39 -7 -80 l0 -73 165 0 165 0 0 80 0 80 -158 0
c-87 0 -162 -3 -165 -7z"/>
</g>
</svg>
