<svg width="34" height="31" viewBox="0 0 34 31" fill="none" xmlns="http://www.w3.org/2000/svg">
<rect width="34" height="31" fill="white"/>
<path d="M19 15C19 16.1046 18.1046 17 17 17C15.8954 17 15 16.1046 15 15C15 13.8954 15.8954 13 17 13C18.1046 13 19 13.8954 19 15Z" stroke="#272727" stroke-width="1.5"/>
<path d="M19 7C19 8.10457 18.1046 9 17 9C15.8954 9 15 8.10457 15 7C15 5.89543 15.8954 5 17 5C18.1046 5 19 5.89543 19 7Z" stroke="#272727" stroke-width="1.5"/>
<path d="M19 23C19 24.1046 18.1046 25 17 25C15.8954 25 15 24.1046 15 23C15 21.8954 15.8954 21 17 21C18.1046 21 19 21.8954 19 23Z" stroke="#272727" stroke-width="1.5"/>
</svg>
