<svg width="22" height="25" viewBox="0 0 22 25" fill="none" xmlns="http://www.w3.org/2000/svg">
<path d="M19.6005 9.41426C20.0249 10.357 20.2049 11.6421 20.5143 13.8506C20.9893 17.2421 21.2268 18.9379 20.7046 20.2549C20.2461 21.4111 19.3995 22.3752 18.3077 22.9845C17.064 23.6787 15.3375 23.6787 11.8844 23.6787H10.1156C6.66252 23.6787 4.936 23.6787 3.6923 22.9845C2.60045 22.3752 1.75392 21.4111 1.29544 20.2549C0.773193 18.9379 1.01071 17.2421 1.48574 13.8506C1.77552 11.7817 1.9518 10.5232 2.32189 9.59729M19.6005 9.41426C19.5173 9.22961 19.4248 9.05809 19.3201 8.89533C18.7568 8.01967 17.9507 7.32371 16.9985 6.89087C16.8227 6.81095 16.6399 6.74403 16.4454 6.688M19.6005 9.41426L19.5034 9.50847L18.5688 10.4352C14.9386 14.035 13.1234 15.8349 10.8679 15.8349C8.61229 15.8349 6.79715 14.035 3.16688 10.4352L2.32189 9.59729M16.4454 6.688C15.4448 6.39968 14.1359 6.39968 11.8844 6.39968H10.1156C7.8641 6.39968 6.55519 6.39968 5.55459 6.688M16.4454 6.688V6.39968C16.4454 3.41752 14.0074 1 11 1C7.99258 1 5.55459 3.41752 5.55459 6.39968V6.688M5.55459 6.688C5.36013 6.74403 5.17733 6.81095 5.0015 6.89087C4.04933 7.32371 3.24325 8.01967 2.67991 8.89533C2.54141 9.11061 2.42424 9.34123 2.32189 9.59729" stroke="#fff"  stroke-width="1.5"/>
</svg>
