<svg width="24" height="21" viewBox="0 0 24 21" fill="none" xmlns="http://www.w3.org/2000/svg">
<path d="M10.2715 0.588642C9.61086 0.912752 7.56561 1.92617 5.72398 2.83915L2.37557 4.50079L1.30317 6.09395C0.117647 7.86514 0 8.05687 0 8.2486C0 8.56358 0.108597 8.65944 1.15837 9.26657L2.14932 9.84176L2.17195 12.4712C2.19457 15.0412 2.19457 15.1051 2.28959 15.2284C2.42534 15.4155 11.3665 20.1722 11.5837 20.1768C11.7285 20.1768 14.2398 18.8118 19.9231 15.6438C20.8869 15.1051 20.9955 15.0138 20.9955 14.6943C20.9955 14.5025 20.8416 14.2515 20.6787 14.1602C20.3937 14.0095 20.3756 14.0232 16.1991 16.3377C14.0226 17.5428 12.2262 18.5334 12.2081 18.5334C12.1855 18.5334 12.1719 16.9265 12.1719 14.9636C12.1719 12.9824 12.19 11.4121 12.2127 11.4395C12.2308 11.4623 12.6154 11.9462 13.0679 12.5122C13.9095 13.5759 13.9864 13.6489 14.2986 13.6489C14.3801 13.6489 15.9005 12.7953 18.5792 11.2478C20.8643 9.92849 22.8009 8.81008 22.8778 8.75987C23.0407 8.65944 23.1674 8.42663 23.1674 8.23034C23.1674 8.066 23.1629 8.06143 21.9005 6.05743C21.3213 5.13075 20.8054 4.34558 20.7511 4.31363C20.4706 4.12646 11.7104 -0.000234604 11.5973 -0.000234604C11.5249 -0.000234604 10.9502 0.255402 10.2715 0.588642ZM15.362 3.05827C17.3891 4.02147 19.0498 4.8249 19.0498 4.84316C19.0498 4.85685 17.371 5.79723 15.3167 6.9339L11.5792 8.99724L7.82805 6.9978C5.76471 5.90222 4.08145 4.99836 4.08597 4.9938C4.14027 4.93902 11.5747 1.28251 11.6154 1.29164C11.6471 1.29621 13.3303 2.0905 15.362 3.05827ZM20.9457 6.76956C21.3439 7.40408 21.6833 7.95644 21.6923 7.99296C21.7149 8.04774 18.7466 9.79154 14.6561 12.1334L14.3982 12.2794L13.4434 11.0697L12.4932 9.86458L12.7285 9.7322C12.8597 9.65459 13.9638 9.04746 15.181 8.37185C16.4027 7.7008 18.0181 6.80608 18.7783 6.38154C19.5385 5.96157 20.1719 5.61463 20.19 5.61463C20.2036 5.61463 20.543 6.13503 20.9457 6.76956ZM7.0905 7.96557L10.6697 9.86915L9.71946 11.0743L8.76923 12.2794L8.62443 12.1927C8.54751 12.147 6.90498 11.1975 4.97738 10.0883C3.04977 8.97898 1.46606 8.06143 1.45701 8.05687C1.44796 8.04774 1.78281 7.52734 2.1991 6.89738L2.95475 5.75158L3.23077 5.90679C3.38462 5.98895 5.11765 6.91564 7.0905 7.96557ZM6.17647 12.1607C7.86425 13.1331 8.80091 13.6489 8.88235 13.6489C9.181 13.6489 9.28507 13.5485 10.1403 12.4666L10.9729 11.4121L10.9864 13.1878C10.991 14.1647 10.991 15.7762 10.9864 16.7713L10.9729 18.5745L7.17195 16.5522L3.37104 14.5299L3.35747 12.5351L3.34842 10.5402L3.47059 10.6087C3.54299 10.6452 4.76018 11.3436 6.17647 12.1607Z" fill="#fff"/>
<path d="M20.0547 11.7773C19.7425 11.969 19.6294 12.4118 19.8194 12.7268C20.1769 13.3202 21.0864 13.0646 21.0864 12.3707C21.0864 11.8412 20.5027 11.5034 20.0547 11.7773Z" fill="#fff" />
</svg>
