<svg width="22" height="24" viewBox="0 0 22 24" fill="none" xmlns="http://www.w3.org/2000/svg">
<path d="M4.6546 5.12763L4.47368 5.85549L4.6546 5.12763ZM8.18339 3.1074L7.46264 2.89996L8.18339 3.1074ZM1.83798 9.96518L2.37463 9.44125L1.83798 9.96518ZM1.83798 14.0057L1.30134 13.4817L1.83798 14.0057ZM4.6546 18.8432L4.83551 19.5711L4.6546 18.8432ZM8.18339 20.8634L7.46264 21.0709L8.18339 20.8634ZM13.8166 20.8634L14.5374 21.0709L13.8166 20.8634ZM17.3454 18.8432L17.5263 18.1154L17.3454 18.8432ZM20.162 14.0057L19.6254 14.5296L20.162 14.0057ZM20.162 9.96518L19.6254 9.44125L20.162 9.96518ZM17.3454 5.12763L17.1645 4.39978L17.3454 5.12763ZM13.8166 3.1074L14.5374 2.89996L13.8166 3.1074ZM4.47368 5.85549C6.39386 6.33276 8.35737 5.2146 8.90413 3.31483L7.46264 2.89996C7.14179 4.01478 5.98196 4.68474 4.83551 4.39978L4.47368 5.85549ZM2.37463 9.44125C0.869926 7.90004 2.32441 5.32127 4.47368 5.85549L4.83551 4.39978C1.26805 3.51306 -1.29331 7.83153 1.30134 10.4891L2.37463 9.44125ZM2.37463 14.5296C3.75861 13.112 3.75861 10.8588 2.37463 9.44125L1.30134 10.4891C2.11637 11.3239 2.11637 12.6469 1.30134 13.4817L2.37463 14.5296ZM4.47368 18.1154C2.32441 18.6496 0.869926 16.0708 2.37463 14.5296L1.30134 13.4817C-1.29332 16.1393 1.26805 20.4578 4.83551 19.5711L4.47368 18.1154ZM8.90413 20.656C8.35737 18.7562 6.39386 17.6381 4.47368 18.1154L4.83551 19.5711C5.98196 19.2861 7.14179 19.9561 7.46264 21.0709L8.90413 20.656ZM13.0959 20.656C12.4954 22.7424 9.50462 22.7424 8.90413 20.656L7.46264 21.0709C8.47954 24.6042 13.5205 24.6042 14.5374 21.0709L13.0959 20.656ZM17.5263 18.1154C15.6061 17.6381 13.6426 18.7562 13.0959 20.656L14.5374 21.0709C14.8582 19.9561 16.018 19.2861 17.1645 19.5711L17.5263 18.1154ZM19.6254 14.5296C21.1301 16.0708 19.6756 18.6496 17.5263 18.1154L17.1645 19.5711C20.732 20.4578 23.2933 16.1393 20.6987 13.4817L19.6254 14.5296ZM19.6254 9.44125C18.2414 10.8588 18.2414 13.112 19.6254 14.5296L20.6987 13.4817C19.8836 12.6469 19.8836 11.3239 20.6987 10.4891L19.6254 9.44125ZM17.5263 5.85549C19.6756 5.32127 21.1301 7.90004 19.6254 9.44125L20.6987 10.4891C23.2933 7.83153 20.732 3.51306 17.1645 4.39978L17.5263 5.85549ZM13.0959 3.31483C13.6426 5.2146 15.6061 6.33276 17.5263 5.85549L17.1645 4.39978C16.018 4.68474 14.8582 4.01478 14.5374 2.89996L13.0959 3.31483ZM14.5374 2.89996C13.5205 -0.633322 8.47953 -0.633321 7.46264 2.89996L8.90413 3.31483C9.50461 1.22839 12.4954 1.22839 13.0959 3.31483L14.5374 2.89996ZM7.11289 11.9854C7.11289 14.1236 8.85918 15.8462 11 15.8462V14.3462C9.67566 14.3462 8.61289 13.2833 8.61289 11.9854H7.11289ZM11 15.8462C13.1408 15.8462 14.8871 14.1236 14.8871 11.9854H13.3871C13.3871 13.2833 12.3243 14.3462 11 14.3462V15.8462ZM14.8871 11.9854C14.8871 9.84722 13.1408 8.12465 11 8.12465V9.62465C12.3243 9.62465 13.3871 10.6876 13.3871 11.9854H14.8871ZM11 8.12465C8.85918 8.12465 7.11289 9.84722 7.11289 11.9854H8.61289C8.61289 10.6876 9.67566 9.62465 11 9.62465V8.12465Z" fill="#fff" />
</svg>
