<svg width="22" height="18" viewBox="0 0 22 18" fill="none" xmlns="http://www.w3.org/2000/svg">
<path d="M19.4424 10.8746L20.0517 11.312L19.4424 10.8746ZM19.4424 7.1254L18.8332 7.56278L19.4424 7.1254ZM20.3262 9H19.5762H20.3262ZM1.88376 10.8746L2.49302 10.4372L1.88376 10.8746ZM1.88376 7.1254L1.2745 6.68801L1.88376 7.1254ZM1 9H0.25H1ZM1.2745 11.312C2.14271 12.5214 3.43472 14.1105 5.01482 15.4043C6.58634 16.691 8.52214 17.75 10.6631 17.75V16.25C9.01732 16.25 7.41219 15.4285 5.96509 14.2437C4.52657 13.0659 3.32229 11.5923 2.49302 10.4372L1.2745 11.312ZM10.6631 17.75C12.804 17.75 14.7398 16.691 16.3114 15.4043C17.8915 14.1105 19.1835 12.5214 20.0517 11.312L18.8332 10.4372C18.0039 11.5923 16.7996 13.0659 15.3611 14.2437C13.914 15.4285 12.3089 16.25 10.6631 16.25V17.75ZM20.0517 6.68801C19.1835 5.47865 17.8915 3.88946 16.3114 2.59571C14.7398 1.30899 12.804 0.25 10.6631 0.25V1.75C12.3089 1.75 13.914 2.57146 15.3611 3.75631C16.7996 4.93414 18.0039 6.40765 18.8332 7.56278L20.0517 6.68801ZM10.6631 0.25C8.52214 0.25 6.58634 1.30899 5.01482 2.59572C3.43472 3.88946 2.1427 5.47865 1.2745 6.68801L2.49302 7.56278C3.32228 6.40765 4.52657 4.93414 5.96509 3.75631C7.41219 2.57146 9.01732 1.75 10.6631 1.75V0.25ZM20.0517 11.312C20.6061 10.5398 21.0762 9.92861 21.0762 9H19.5762C19.5762 9.35852 19.4571 9.56806 18.8332 10.4372L20.0517 11.312ZM18.8332 7.56278C19.4571 8.43194 19.5762 8.64148 19.5762 9H21.0762C21.0762 8.07139 20.6061 7.46024 20.0517 6.68801L18.8332 7.56278ZM2.49302 10.4372C1.86905 9.56806 1.75 9.35852 1.75 9H0.25C0.25 9.92861 0.72012 10.5398 1.2745 11.312L2.49302 10.4372ZM1.2745 6.68801C0.72012 7.46024 0.25 8.07139 0.25 9H1.75C1.75 8.64148 1.86905 8.43194 2.49302 7.56278L1.2745 6.68801ZM6.91309 9C6.91309 11.0711 8.59202 12.75 10.6631 12.75V11.25C9.42045 11.25 8.41309 10.2426 8.41309 9H6.91309ZM10.6631 12.75C12.7342 12.75 14.4131 11.0711 14.4131 9H12.9131C12.9131 10.2426 11.9057 11.25 10.6631 11.25V12.75ZM14.4131 9C14.4131 6.92893 12.7342 5.25 10.6631 5.25V6.75C11.9057 6.75 12.9131 7.75736 12.9131 9H14.4131ZM10.6631 5.25C8.59202 5.25 6.91309 6.92893 6.91309 9H8.41309C8.41309 7.75736 9.42045 6.75 10.6631 6.75V5.25Z" fill="#fff"/>
</svg>
