<svg width="35" height="26" viewBox="0 0 35 26" fill="none" xmlns="http://www.w3.org/2000/svg">
<path d="M16.2774 17.9726C15.8632 17.9726 15.5274 18.3084 15.5274 18.7226C15.5274 19.1368 15.8632 19.4726 16.2774 19.4726V17.9726ZM19.218 19.4726C19.6322 19.4726 19.968 19.1368 19.968 18.7226C19.968 18.3084 19.6322 17.9726 19.218 17.9726V19.4726ZM16.2774 6.21037C15.8632 6.21037 15.5274 6.54616 15.5274 6.96037C15.5274 7.37458 15.8632 7.71037 16.2774 7.71037V6.21037ZM30 7.71037C30.4142 7.71037 30.75 7.37458 30.75 6.96037C30.75 6.54616 30.4142 6.21037 30 6.21037V7.71037ZM16.2774 12.0915C15.8632 12.0915 15.5274 12.4273 15.5274 12.8415C15.5274 13.2557 15.8632 13.5915 16.2774 13.5915V12.0915ZM22.1585 13.5915C22.5727 13.5915 22.9085 13.2557 22.9085 12.8415C22.9085 12.4273 22.5727 12.0915 22.1585 12.0915V13.5915ZM11.9092 19.0182C12.2008 18.724 12.1986 18.2492 11.9044 17.9576C11.6102 17.666 11.1354 17.6681 10.8438 17.9623L11.9092 19.0182ZM8.49537 20.6635L8.59019 21.4075H8.5902L8.49537 20.6635ZM5.53269 17.9623C5.24111 17.6681 4.76624 17.666 4.47204 17.9576C4.17784 18.2492 4.17573 18.724 4.46731 19.0182L5.53269 17.9623ZM7.88112 20.6635L7.78629 21.4075H7.78629L7.88112 20.6635ZM4.46731 6.66475C4.17573 6.95894 4.17784 7.43381 4.47204 7.7254C4.76624 8.01698 5.24111 8.01486 5.53269 7.72066L4.46731 6.66475ZM7.88112 5.0195L7.78629 4.27551L7.78629 4.27551L7.88112 5.0195ZM10.8438 7.72066C11.1354 8.01486 11.6102 8.01698 11.9044 7.7254C12.1986 7.43381 12.2008 6.95894 11.9092 6.66475L10.8438 7.72066ZM8.49537 5.0195L8.5902 4.27552L8.5902 4.27551L8.49537 5.0195ZM16.2774 19.4726H19.218V17.9726H16.2774V19.4726ZM16.2774 7.71037H30V6.21037H16.2774V7.71037ZM16.2774 13.5915H22.1585V12.0915H16.2774V13.5915ZM10.8438 17.9623C10.1485 18.6639 9.67077 19.1442 9.26625 19.4691C8.87356 19.7845 8.6232 19.8911 8.40054 19.9195L8.5902 21.4075C9.1999 21.3297 9.70718 21.0388 10.2055 20.6386C10.692 20.2479 11.2387 19.6947 11.9092 19.0182L10.8438 17.9623ZM4.46731 19.0182C5.13781 19.6947 5.6845 20.2479 6.17099 20.6386C6.66931 21.0388 7.17659 21.3297 7.78629 21.4075L7.97595 19.9195C7.75328 19.8911 7.50292 19.7845 7.11023 19.4691C6.70571 19.1442 6.22802 18.6639 5.53269 17.9623L4.46731 19.0182ZM8.40054 19.9195C8.33005 19.9285 8.25915 19.933 8.18824 19.933V21.433C8.32249 21.433 8.45674 21.4245 8.59019 21.4075L8.40054 19.9195ZM8.18824 19.933C8.11734 19.933 8.04644 19.9285 7.97595 19.9195L7.78629 21.4075C7.91973 21.4245 8.05399 21.433 8.18824 21.433V19.933ZM5.53269 7.72066C6.22802 7.0191 6.70571 6.53874 7.11023 6.21388C7.50292 5.89851 7.75328 5.79186 7.97595 5.76348L7.78629 4.27551C7.17659 4.35323 6.66931 4.64414 6.17099 5.04434C5.6845 5.43503 5.13781 5.98824 4.46731 6.66475L5.53269 7.72066ZM11.9092 6.66475C11.2387 5.98824 10.692 5.43503 10.2055 5.04434C9.70718 4.64414 9.1999 4.35323 8.5902 4.27552L8.40054 5.76348C8.6232 5.79186 8.87356 5.89851 9.26625 6.21388C9.67077 6.53874 10.1485 7.0191 10.8438 7.72066L11.9092 6.66475ZM7.97595 5.76348C8.04644 5.75449 8.11734 5.75 8.18824 5.75V4.25C8.05399 4.25 7.91974 4.25851 7.78629 4.27551L7.97595 5.76348ZM8.18824 5.75C8.25914 5.75 8.33005 5.75449 8.40054 5.76348L8.5902 4.27551C8.45675 4.25851 8.3225 4.25 8.18824 4.25V5.75ZM7.43824 5L7.43824 20.683H8.93824L8.93824 5L7.43824 5Z" fill="#fff"/>
</svg>
