<svg width="70" height="70" viewBox="0 0 70 70" fill="none" xmlns="http://www.w3.org/2000/svg">
<path d="M31.9512 0.246094C31.8281 0.382812 31.5547 1.2168 31.3359 2.11914L30.9395 3.74609L29.9141 4.16992L28.8887 4.60742L27.3301 3.67773C26.25 3.02148 25.6895 2.76172 25.498 2.81641C25.3477 2.85742 24.3496 3.77344 23.2832 4.82617C21.8066 6.28906 21.3281 6.84961 21.3281 7.10938C21.3281 7.30078 21.7246 8.10742 22.2168 8.91406L23.1191 10.377L22.8594 10.8965C22.709 11.1836 22.5176 11.6348 22.4355 11.9082L22.2852 12.4004L20.6035 12.7832C19.6875 12.9883 18.8262 13.248 18.7031 13.3711C18.4844 13.5488 18.457 13.877 18.457 16.4062C18.457 18.4434 18.498 19.291 18.6348 19.4551C18.7305 19.5918 19.4688 19.8379 20.4941 20.0977C21.4238 20.3164 22.2031 20.5215 22.2168 20.5352C22.2441 20.5625 22.4355 21.0137 22.668 21.5605L23.0781 22.5449L22.1895 23.9941C21.6973 24.8008 21.3008 25.6074 21.3008 25.7988C21.3008 26.0312 21.5605 26.4141 22.1621 27.0293C23.2012 28.082 23.5566 28.2598 24.0078 27.959C24.5273 27.6172 24.4316 27.1523 23.6387 26.3184L22.9551 25.5938L23.625 24.5137C24.8555 22.5586 24.8281 22.6816 24.3496 21.6836C24.1309 21.2051 23.8438 20.4941 23.707 20.0977C23.4336 19.2637 23.3105 19.1953 21.2871 18.7305L19.9473 18.416L19.9883 16.4336L20.0293 14.4512L21.5605 14.082C23.1738 13.6992 23.4473 13.5625 23.5977 13.084C23.6387 12.9199 23.9258 12.209 24.2266 11.5117L24.7871 10.2402L23.8848 8.77734L22.9824 7.31445L24.3906 5.90625L25.7988 4.49805L27.166 5.31836C27.918 5.7832 28.6973 6.15234 28.8887 6.15234C29.0801 6.15234 29.5312 6.00195 29.9004 5.82422C30.2559 5.64648 30.8574 5.40039 31.2402 5.26367C31.6094 5.14062 31.9922 4.97656 32.0879 4.89453C32.1836 4.82617 32.416 4.0332 32.6211 3.13086L33.0039 1.50391H35.0137H37.0234L37.3242 2.83008C37.7891 4.86719 37.8574 4.97656 38.7051 5.25C39.1152 5.38672 39.8262 5.67383 40.3047 5.89258L41.1523 6.28906L41.6719 6.0293C41.9453 5.89258 42.6426 5.48242 43.2031 5.14062L44.2148 4.51172L45.623 5.90625C46.8672 7.15039 47.0039 7.32812 46.8672 7.57422C46.7852 7.73828 46.4297 8.32617 46.0742 8.88672C45.7324 9.44727 45.4043 10.0215 45.3496 10.1445C45.3086 10.2812 45.459 10.8008 45.7324 11.4023C45.9785 11.9629 46.2656 12.6738 46.3613 12.9883C46.457 13.2891 46.6348 13.6035 46.7441 13.6582C46.8672 13.7266 47.5508 13.9043 48.2617 14.0684C48.9727 14.2324 49.6699 14.3965 49.8066 14.4375C50.0117 14.5059 50.0391 14.7246 50.0391 16.4746V18.4434L49.5332 18.5801C49.2461 18.6621 48.4941 18.8398 47.8516 18.9902C46.7441 19.25 46.3477 19.4961 46.3477 19.9199C46.3477 20.0156 46.1016 20.6445 45.8008 21.3145C45.5 21.9844 45.2539 22.5859 45.2539 22.6406C45.2539 22.709 45.6504 23.4062 46.1426 24.1992L47.0176 25.6348L46.2656 26.3867C45.6777 26.9883 45.5273 27.2344 45.5273 27.5762C45.5273 28.0273 45.8145 28.3008 46.2793 28.3008C46.416 28.3008 47.0039 27.8223 47.5918 27.248C48.4121 26.4551 48.6719 26.1133 48.6719 25.8262C48.6719 25.6211 48.3027 24.8555 47.7969 24.0215L46.9082 22.5859L47.332 21.5742L47.7559 20.5488L49.3418 20.1797C51.748 19.5918 51.543 19.9336 51.543 16.543C51.543 13.9727 51.5156 13.6445 51.2969 13.4258C51.1602 13.2891 50.3809 13.0293 49.3965 12.7969L47.7285 12.4277L47.5645 11.9219C47.4824 11.6484 47.291 11.1836 47.1543 10.9102L46.8945 10.418L47.7695 8.99609C48.248 8.2168 48.6855 7.4375 48.7402 7.25977C48.8223 6.98633 48.5762 6.68555 46.8125 4.9082C45.1582 3.25391 44.7207 2.87109 44.4062 2.87109C44.1738 2.87109 43.4629 3.21289 42.6016 3.74609L41.1797 4.63477L40.168 4.21094C39.6211 3.97852 39.1562 3.77344 39.1289 3.75977C39.1016 3.74609 38.9648 3.21289 38.8145 2.58398C38.377 0.710938 38.2812 0.4375 38.0625 0.205078C37.8848 0.0410156 37.3926 0 35.0137 0C32.457 0 32.1426 0.0273438 31.9512 0.246094Z" fill="white"/>
<path d="M34.0841 10.2674C31.6779 10.5682 29.5587 12.4959 28.9161 14.9979C28.1779 17.8279 29.6134 20.8084 32.3614 22.1209C33.3048 22.5584 33.5646 22.6268 34.7267 22.6678C35.7931 22.7088 36.1759 22.6678 36.9005 22.4217C41.4396 20.8904 42.7521 15.3807 39.3751 12.0037C38.4864 11.115 37.2286 10.4451 36.2443 10.3221C35.9025 10.2811 35.465 10.2264 35.2736 10.199C35.0821 10.1854 34.5489 10.2127 34.0841 10.2674ZM37.0099 12.1678C38.0216 12.6326 38.8282 13.4256 39.3341 14.4647C39.6622 15.1483 39.7169 15.3943 39.7169 16.4744C39.7032 18.033 39.3204 18.9354 38.213 19.9471C36.3536 21.6424 33.6466 21.6424 31.7872 19.9471C30.6798 18.9354 30.297 18.033 30.2833 16.4744C30.2833 15.3943 30.338 15.1483 30.6661 14.4647C31.8693 12.0174 34.5626 11.033 37.0099 12.1678Z" fill="white"/>
<path d="M31.9238 23.5977C28.7656 24.3633 25.9902 27.0293 25.2246 30.0508C25.0332 30.7754 25.0059 31.5547 25.0469 34.6992L25.1016 38.4863L25.5527 39.8262C26.127 41.4668 27.2754 43.2852 28.4375 44.3379L29.2715 45.0762L29.2305 46.9629L29.1895 48.8359L26.8105 49.7246C24.418 50.6133 23.625 51.0098 22.9414 51.6387L22.5723 51.9805L22.1895 51.707C21.5332 51.2559 20.7402 50.9004 19.127 50.3262C18.2656 50.0391 17.459 49.752 17.3359 49.6973C17.1582 49.6289 17.0898 49.4375 17.0898 49.0137V48.4395L17.9102 48.3574C20.5215 48.125 22.7363 45.8145 23.1191 42.9434C23.3516 41.207 23.2012 34.2207 22.9141 33.1543C22.0801 30.0645 19.6875 27.5488 16.6797 26.5918C16.2695 26.4551 15.5039 26.1406 14.9707 25.8945C12.1816 24.541 8.77734 24.7734 5.76953 26.5371C4.77148 27.125 2.93945 28.9707 2.35156 29.9688C2.10547 30.3926 1.73633 31.1856 1.53125 31.7461L1.16211 32.7441V38.2813V43.8184L1.59961 44.7344C2.1875 45.9785 2.65234 46.5527 3.5957 47.2637C4.40234 47.8516 5.82422 48.3984 6.57617 48.3984C6.95898 48.3984 6.97266 48.4258 6.97266 49V49.6016L5.16797 50.3125C2.50195 51.3379 1.50391 52.1035 0.683594 53.7305C0.0410156 55.002 0 55.3848 0 61.0586C0 66.0625 0.0136719 66.418 0.246094 66.623C0.478516 66.8418 1.39453 66.8555 10.5684 66.8555H20.6445V68.1953C20.6445 69.3301 20.6855 69.5898 20.8906 69.7676C21.123 69.9863 22.2988 70 35.0273 70C48.3027 70 48.918 69.9863 49.123 69.7539C49.3008 69.5488 49.3555 69.2207 49.3555 68.1816V66.8555H59.4453C69.0566 66.8555 69.5625 66.8418 69.7676 66.6094C69.9727 66.377 70 65.8027 70 61.0996C70 58.0645 69.9316 55.6035 69.8496 55.248C69.4941 53.7031 68.3047 52.0625 67.0195 51.3652C66.6504 51.1602 65.7344 50.7773 64.9961 50.5176C62.2207 49.5332 62.4805 49.6836 62.4805 49.0273V48.4395L63.3008 48.3574C65.1738 48.1523 67.0195 46.8262 67.9082 45.0078L68.4277 43.9688L68.4688 39.0195C68.5098 33.4961 68.4824 33.1816 67.6074 31.377C66.5 29.0938 64.5176 27.3848 62.0703 26.5918C61.6602 26.4551 60.8809 26.1406 60.334 25.8809C57.5039 24.541 54.168 24.7734 51.1602 26.5371C50.7363 26.7969 49.8613 27.5215 49.2188 28.1641C48.2754 29.0938 47.9336 29.5586 47.4688 30.4883C46.5117 32.457 46.457 32.8262 46.5117 38.6777C46.5527 43.6543 46.5664 43.8457 46.8672 44.5703C47.3047 45.6367 48.002 46.5391 48.959 47.2363C49.793 47.8516 51.2148 48.3984 51.9668 48.3984C52.3496 48.3984 52.3633 48.4258 52.3633 49V49.6016L51.0371 50.1074C49.0547 50.8594 48.6035 51.0645 47.9336 51.543L47.3184 51.9531L46.6621 51.4609C45.8145 50.8047 45.1445 50.5176 42.2871 49.5742L39.9219 48.7813V47.168C39.9219 45.6777 39.9492 45.5273 40.1953 45.3906C40.8105 45.0625 42.1777 43.8047 42.752 43.0254C43.4902 42.0273 44.3379 40.3184 44.666 39.1699C45.0078 37.9395 45.0898 31.9922 44.7754 30.7617C44.0508 27.9727 42.0273 25.7715 39.293 24.8281C38.7734 24.6504 37.9531 24.3223 37.4609 24.0898C36.9688 23.8711 36.2441 23.6113 35.8477 23.5293C34.8633 23.3242 32.9219 23.3516 31.9238 23.5977ZM35.6699 25.0332C35.998 25.1016 36.7227 25.375 37.2559 25.6348C37.8027 25.8945 38.3359 26.1133 38.4316 26.1133C38.8418 26.1133 40.5645 27.0566 41.207 27.6309C42.082 28.4102 42.875 29.6406 43.2168 30.7617C43.4355 31.5 43.4766 31.9785 43.4492 33.5371L43.4082 35.4238L42.5879 34.8906C40.8105 33.7422 39.2383 31.9785 38.3223 30.1055C37.543 28.5332 37.2012 28.5059 36.0801 29.8731C34.7812 31.4863 33.8242 31.9238 31.9102 31.8008C29.8594 31.6641 28.3555 32.1152 27.1523 33.2227L26.5234 33.8106V32.3613C26.5234 31.3223 26.5918 30.6934 26.7969 30.0508C27.5078 27.7266 29.6133 25.7715 32.1426 25.1016C33.0039 24.8691 34.8086 24.8281 35.6699 25.0332ZM12.8926 26.7285C13.3984 26.8379 14.1641 27.0977 14.6016 27.3301C15.0254 27.5488 15.832 27.8906 16.3926 28.082C18.0742 28.6563 19.4414 29.709 20.4395 31.2129C21.4375 32.7031 21.7793 34.4121 21.7109 37.5293L21.6699 39.4434L19.2637 37.0781C17.9375 35.7656 16.0508 33.8106 15.0938 32.7305C14.123 31.6504 13.1934 30.7207 13.0293 30.6797C12.7695 30.6113 12.4688 30.8574 11.252 32.1016C9.66602 33.7148 8.61328 34.4941 7.04102 35.2188C6.00195 35.6973 4.16992 36.2715 3.1582 36.4219L2.55664 36.5176L2.63867 35.041C2.76172 32.5391 3.62305 30.4336 5.14062 28.9297C7.08203 26.9883 10.0762 26.127 12.8926 26.7285ZM58.1328 26.6738C58.5293 26.7559 59.3496 27.0566 59.9512 27.3301C60.5527 27.6172 61.3867 27.959 61.7969 28.0957C64.0938 28.8203 66.0215 30.8574 66.7871 33.3594C67.0469 34.207 67.2656 39.375 67.0469 39.375C66.8691 39.375 61.8242 34.2617 60.1562 32.4023C59.3906 31.541 58.6113 30.7754 58.4336 30.707C58.1602 30.5977 57.9688 30.7344 56.5742 32.1563C54.8652 33.8926 53.498 34.8359 51.625 35.5606C50.7363 35.9023 48.5352 36.4902 48.0977 36.5039C47.8516 36.5039 48.002 34.3027 48.3164 33.0313C49.1504 29.7637 51.2285 27.5078 54.1406 26.7422C55.043 26.4961 57.1348 26.4688 58.1328 26.6738ZM38.8555 33.5918C39.2793 34.1113 40.0586 34.8633 40.5918 35.2734C41.4668 35.957 43.0254 36.9688 43.3809 37.0918C43.6406 37.1738 43.0938 39.334 42.5195 40.5371C41.3984 42.8613 39.3887 44.5566 36.9824 45.1855C35.9434 45.4453 34.0566 45.4453 33.0176 45.1855C29.6543 44.3105 26.9609 41.1387 26.5918 37.625C26.5098 36.9004 26.5508 36.7773 27.0156 35.9023C27.6309 34.7676 28.2871 34.0703 29.1895 33.6328C29.8047 33.3457 30.0645 33.3184 31.8691 33.3047L33.8516 33.291L34.877 32.7852C35.4375 32.4981 36.1484 32.0059 36.4902 31.6641L37.0918 31.0488L37.584 31.8555C37.8574 32.3066 38.4316 33.0859 38.8555 33.5918ZM15.5176 35.4102C16.1191 36.0527 16.9395 36.9277 17.3359 37.3516L18.0469 38.1309V39.4023C18.0469 41.6445 17.4043 43.2852 15.9824 44.6387C15.5449 45.0625 14.834 45.5684 14.3965 45.7734C13.7129 46.0879 13.4258 46.1426 12.3047 46.1426C11.1016 46.1426 10.9238 46.1016 10.0898 45.6914C8.53125 44.9258 7.25977 43.2852 6.76758 41.4121C6.50781 40.4414 6.50781 38.5137 6.76758 37.625C6.97266 36.9551 7.02734 36.9004 7.91602 36.4492C8.43555 36.1895 9.0918 35.834 9.39258 35.6426C10.3086 35.0547 12.0039 33.6465 12.4551 33.0723L12.8789 32.5254L13.6445 33.3867C14.0684 33.8652 14.916 34.7676 15.5176 35.4102ZM61.4551 35.9981C62.4395 37.0371 63.2734 37.9941 63.3281 38.1172C63.4922 38.5273 63.4375 40.6602 63.2324 41.4121C62.7402 43.2852 61.4688 44.9258 59.9102 45.6914C59.0762 46.1016 58.8984 46.1426 57.6953 46.1426C56.5742 46.1426 56.2871 46.0879 55.6035 45.7734C54.0176 45.0215 52.6367 43.3125 52.1582 41.4941C51.9121 40.5098 51.8984 38.5957 52.1309 37.666C52.3086 36.9961 52.3223 36.9688 53.4844 36.3535C55.0566 35.5195 56.3555 34.5762 57.4219 33.4961L58.3105 32.5938L58.9941 33.3457C59.377 33.7695 60.4844 34.959 61.4551 35.9981ZM5.08594 38.9375C4.99023 41.1387 5.55078 43.2441 6.64453 44.666C6.91797 45.0215 6.97266 45.2539 6.97266 46.0195V46.9355L6.35742 46.8535C5.01758 46.6621 3.58203 45.541 2.9668 44.1875C2.69336 43.6133 2.66602 43.2715 2.625 40.7969L2.58398 38.0488L3.85547 37.7754C4.55273 37.625 5.14062 37.4883 5.14062 37.4746C5.1543 37.4746 5.12695 38.1309 5.08594 38.9375ZM50.4766 39.0332C50.3945 41.2891 50.9004 43.1621 52.0352 44.666C52.3086 45.0215 52.3633 45.2676 52.3633 46.0195V46.9355L51.748 46.8535C50.3125 46.6484 48.8223 45.418 48.2754 43.9824C48.0156 43.2715 47.9883 42.916 47.9883 40.6191V38.0488L49.2598 37.7754C49.9434 37.625 50.5176 37.4883 50.5312 37.4746C50.5312 37.4746 50.5039 38.1719 50.4766 39.0332ZM20.7266 40.5645C21.6289 41.3984 21.7383 41.5488 21.7383 42C21.7383 42.7246 21.4785 43.873 21.1641 44.4746C20.5488 45.6914 19.0586 46.7441 17.7598 46.8672L17.0898 46.9355V46.375C17.0898 45.9238 17.2129 45.6504 17.7461 44.9531C18.7852 43.5723 19.5508 41.5762 19.5508 40.2363C19.5508 39.9082 19.5918 39.6484 19.6328 39.6484C19.6738 39.6484 20.166 40.0586 20.7266 40.5645ZM66.1719 40.6602L67.1562 41.5898L67.0605 42.4922C66.9375 43.5996 66.7051 44.2695 66.1719 45.0488C65.4746 46.0605 64.0117 46.8945 62.9453 46.8945C62.4941 46.8945 62.4805 46.8809 62.4805 46.334C62.4805 45.8828 62.5898 45.623 63.082 45.0078C63.4102 44.5703 63.8477 43.9004 64.0527 43.5039C64.4766 42.6289 64.9414 40.9063 64.9414 40.168C64.9414 39.8672 64.9961 39.6484 65.0645 39.6758C65.1328 39.6895 65.6387 40.1406 66.1719 40.6602ZM31.9512 46.4434C33.7148 47.0449 36.5723 47.0313 38.1855 46.416C38.3906 46.3203 38.418 46.4434 38.418 47.7559V49.1914L36.832 52.1855C35.957 53.8262 35.1914 55.2207 35.1367 55.2891C35.0684 55.3438 34.0703 53.9629 32.8945 52.2129L30.7617 49.0137V47.5508C30.7617 46.7305 30.7891 46.0742 30.8301 46.0742C30.8574 46.0742 31.377 46.2383 31.9512 46.4434ZM10.0762 47.332C11.5938 47.8652 13.5078 47.7969 14.9844 47.168L15.5859 46.9082V48.5352V50.1621L13.9863 52.623C13.0977 53.9902 12.3457 55.0977 12.3047 55.0977C12.2637 55.084 11.3887 53.9219 10.3633 52.5137L8.47656 49.9297V48.1934V46.4707L8.88672 46.7578C9.11914 46.9219 9.65234 47.1816 10.0762 47.332ZM54.7695 47.0176C56.5332 47.8789 58.707 47.9336 60.3477 47.1543C60.6484 47.0039 60.9082 46.8945 60.9355 46.8945C60.9629 46.8945 60.9766 47.6328 60.9766 48.5215V50.1484L59.377 52.623C58.4883 53.9766 57.7363 55.084 57.6953 55.084C57.6543 55.0977 56.7793 53.9355 55.7539 52.5273L53.8809 49.9707L53.8672 48.2891C53.8672 47.373 53.8945 46.6211 53.9082 46.6211C53.9355 46.6211 54.3184 46.7988 54.7695 47.0176ZM32.0605 53.6895L34.3164 57.0801V58.8574C34.3164 60.7852 34.3848 60.9766 35 60.9766C35.6152 60.9766 35.6836 60.7715 35.6836 59.0625V57.4902L37.543 54.0039C38.5684 52.0898 39.457 50.4629 39.5254 50.3945C39.6621 50.2441 43.9277 51.6387 45.0078 52.1855C45.8555 52.5957 46.498 53.1836 47.0039 53.9766C47.8242 55.2617 47.8516 55.4805 47.8516 62.3027V68.4961H45.1855H42.5195V64.873C42.5195 61.4277 42.5059 61.2363 42.2461 60.9766C41.918 60.6484 41.6035 60.6348 41.2617 60.9355C41.0293 61.1406 41.0156 61.4414 41.0156 64.832V68.4961H35H28.9844V64.8457C28.9844 61.6465 28.957 61.168 28.752 60.9492C28.4648 60.6211 28.0957 60.6348 27.7539 60.9766C27.4941 61.2363 27.4805 61.4277 27.4805 64.873V68.4961H24.8145H22.1348L22.1758 61.9746L22.2168 55.4395L22.5859 54.6465C23.0645 53.6348 23.625 52.9238 24.3359 52.4316C24.8555 52.0762 29.2305 50.3262 29.627 50.3125C29.7227 50.3125 30.8164 51.8301 32.0605 53.6895ZM9.55664 53.9355L11.6211 56.7383V58.8848C11.6211 60.6895 11.6621 61.0586 11.8535 61.2773C12.1406 61.6055 12.5098 61.5918 12.8516 61.25C13.0977 61.0039 13.125 60.7988 13.125 58.8164V56.6563L14.916 53.9355C15.8867 52.4316 16.7207 51.1875 16.748 51.1602C16.7754 51.1328 17.623 51.3926 18.6211 51.7344C20.207 52.2949 20.6445 52.5 21.4375 53.0195C21.5742 53.1152 21.5332 53.293 21.2871 53.8809C20.6992 55.1797 20.6445 55.8223 20.6445 60.7031V65.3516H11.0742H1.49023L1.53125 60.3203C1.57227 55.5078 1.58594 55.2754 1.87305 54.6602C2.21484 53.9082 3.1582 52.8418 3.74609 52.5273C4.42969 52.1855 7.01367 51.1602 7.27344 51.1465C7.41016 51.1328 8.24414 52.1445 9.55664 53.9355ZM54.9473 53.9355L57.0117 56.752V58.8848C57.0117 60.6895 57.0527 61.0586 57.2441 61.2773C57.5312 61.6055 57.9004 61.5918 58.2422 61.25C58.4883 61.0039 58.5156 60.7988 58.5156 58.8027V56.6152L60.293 53.9082C61.2773 52.418 62.125 51.1875 62.1934 51.1602C62.4395 51.0781 66.0762 52.5137 66.6504 52.9238C66.9922 53.1699 67.457 53.6484 67.6895 53.9902C68.4551 55.1523 68.4961 55.5078 68.4961 60.6621V65.3516H58.9258H49.3555V60.7715C49.3555 55.9316 49.3008 55.3027 48.7129 53.9766C48.3027 53.0605 48.3574 52.9375 49.2734 52.4727C50.0254 52.0762 52.377 51.1602 52.6641 51.1465C52.8008 51.1328 53.6348 52.1582 54.9473 53.9355Z" fill="white"/>
<path d="M34.3164 62.6172C33.9199 63.0137 33.9609 63.6289 34.3984 63.9707C34.6035 64.1348 34.8633 64.2578 35 64.2578C35.1367 64.2578 35.3965 64.1348 35.6016 63.9707C36.2851 63.4238 35.8887 62.3438 35 62.3438C34.7676 62.3438 34.4668 62.4668 34.3164 62.6172Z" fill="white"/>
</svg>
