<svg width="40" height="40" viewBox="-3 0 42 33" fill="none" xmlns="http://www.w3.org/2000/svg">
<path d="M10 2H24V-2H10V2ZM32 10V24.3139H36V10H32ZM24 32.3139H10V36.3139H24V32.3139ZM2 24.3138V10H-2V24.3138H2ZM10 32.3139C5.58172 32.3139 2 28.7321 2 24.3138H-2C-2 30.9413 3.37258 36.3139 10 36.3139V32.3139ZM32 24.3139C32 28.7321 28.4183 32.3139 24 32.3139V36.3139C30.6274 36.3139 36 30.9413 36 24.3139H32ZM24 2C28.4183 2 32 5.58172 32 10H36C36 3.37259 30.6274 -2 24 -2V2ZM10 -2C3.37258 -2 -2 3.37258 -2 10H2C2 5.58172 5.58172 2 10 2V-2Z" fill="#272727"/>
</svg>
